<svg width="1500" height="500" viewBox="0 0 1500 500" fill="none" xmlns="http://www.w3.org/2000/svg">
<g clip-path="url(#clip0_1_8)">
<rect width="1500" height="500" fill="#334652"/>
<path opacity="0.6" fill-rule="evenodd" clip-rule="evenodd" d="M1293.79 379.341C1267.7 332.537 1230.35 283.888 1177.84 291.864C1118.79 300.836 1076.78 353.531 1070.72 413.23C1064.71 472.445 1096.8 529.785 1151.22 554.077C1204.29 577.76 1266.95 561.808 1303.43 517.098C1335.37 477.956 1318.64 423.908 1293.79 379.341Z" fill="#142A38"/>
<path fill-rule="evenodd" clip-rule="evenodd" d="M1232.91 239.554C1279.96 154.915 1347.36 66.9758 1442.39 81.6057C1549.27 98.0607 1625.47 193.611 1636.65 301.712C1647.74 408.937 1589.88 512.629 1491.5 556.41C1395.58 599.095 1282.13 569.989 1215.97 488.914C1158.05 417.937 1188.11 320.148 1232.91 239.554Z" fill="#556570"/>
<g opacity="0.4">
<circle r="8" transform="matrix(-1 0 0 1 72 129.76)" fill="#C9D1D6"/>
<circle r="8" transform="matrix(-1 0 0 1 72 96)" fill="#C9D1D6"/>
<circle r="8" transform="matrix(-1 0 0 1 104 129.76)" fill="#C9D1D6"/>
<circle r="8" transform="matrix(-1 0 0 1 104 96)" fill="#C9D1D6"/>
<circle r="8" transform="matrix(-1 0 0 1 136 129.76)" fill="#C9D1D6"/>
<circle r="8" transform="matrix(-1 0 0 1 136 96)" fill="#C9D1D6"/>
</g>
<g style="mix-blend-mode:multiply" opacity="0.4">
<path fill-rule="evenodd" clip-rule="evenodd" d="M194.518 300.143C247.776 365.204 297.19 447.761 254.986 519.867C207.517 600.968 106.027 632.004 15.2069 606.498C-74.8783 581.198 -140.058 501.319 -143.921 407.836C-147.688 316.694 -87.9092 234.331 -1.31176 206.776C74.4993 182.652 143.804 238.192 194.518 300.143Z" fill="#142A38"/>
</g>
<path opacity="0.6" fill-rule="evenodd" clip-rule="evenodd" d="M243.133 -133.525C283.224 -105.855 311.924 -67.3397 334.776 -24.3318C359.265 21.7556 385.925 70.2103 378.839 121.875C371.509 175.312 339.724 224.412 296.279 256.353C255.033 286.678 201.376 287.464 150.209 289.969C101.921 292.332 53.1161 292.39 10.05 270.363C-34.5681 247.543 -73.2965 211.903 -92.7218 165.72C-111.916 120.087 -105.396 69.2589 -94.8687 20.9238C-84.396 -27.1623 -66.5503 -73.1749 -32.8793 -109.05C3.04114 -147.322 47.4895 -181.859 99.8092 -186.499C151.79 -191.108 200.158 -163.186 243.133 -133.525Z" stroke="#C9D1D6"/>
<path opacity="0.4" d="M482.591 287H491.023V267.227H512.591V287H521.045V240.455H512.591V260.159H491.023V240.455H482.591V287ZM528.252 287H536.48V252.091H528.252V287ZM532.389 247.136C535.002 247.136 537.139 245.136 537.139 242.682C537.139 240.205 535.002 238.205 532.389 238.205C529.752 238.205 527.616 240.205 527.616 242.682C527.616 245.136 529.752 247.136 532.389 247.136ZM543.34 287H551.567V266.477C551.567 262.045 554.908 258.909 559.431 258.909C560.817 258.909 562.544 259.159 563.249 259.386V251.818C562.499 251.682 561.203 251.591 560.294 251.591C556.294 251.591 552.953 253.864 551.681 257.909H551.317V252.091H543.34V287ZM581.132 287.682C589.268 287.682 594.859 283.705 596.314 277.636L588.632 276.773C587.518 279.727 584.791 281.273 581.245 281.273C575.927 281.273 572.405 277.773 572.336 271.795H596.655V269.273C596.655 257.023 589.291 251.636 580.7 251.636C570.7 251.636 564.177 258.977 564.177 269.75C564.177 280.705 570.609 287.682 581.132 287.682ZM572.359 266.25C572.609 261.795 575.905 258.045 580.814 258.045C585.541 258.045 588.723 261.5 588.768 266.25H572.359ZM602.015 300.091H610.242V281.5H610.583C611.878 284.045 614.583 287.614 620.583 287.614C628.81 287.614 634.969 281.091 634.969 269.591C634.969 257.955 628.628 251.636 620.56 251.636C614.401 251.636 611.833 255.341 610.583 257.864H610.106V252.091H602.015V300.091ZM610.083 269.545C610.083 262.773 612.992 258.386 618.287 258.386C623.765 258.386 626.583 263.045 626.583 269.545C626.583 276.091 623.719 280.864 618.287 280.864C613.037 280.864 610.083 276.318 610.083 269.545ZM640.415 287H648.642V266.477C648.642 262.045 651.983 258.909 656.506 258.909C657.892 258.909 659.619 259.159 660.324 259.386V251.818C659.574 251.682 658.278 251.591 657.369 251.591C653.369 251.591 650.028 253.864 648.756 257.909H648.392V252.091H640.415V287ZM677.98 287.682C688.207 287.682 694.707 280.477 694.707 269.682C694.707 258.864 688.207 251.636 677.98 251.636C667.752 251.636 661.252 258.864 661.252 269.682C661.252 280.477 667.752 287.682 677.98 287.682ZM678.025 281.091C672.366 281.091 669.593 276.045 669.593 269.659C669.593 263.273 672.366 258.159 678.025 258.159C683.593 258.159 686.366 263.273 686.366 269.659C686.366 276.045 683.593 281.091 678.025 281.091ZM715.317 287.682C725.544 287.682 732.044 280.477 732.044 269.682C732.044 258.864 725.544 251.636 715.317 251.636C705.09 251.636 698.59 258.864 698.59 269.682C698.59 280.477 705.09 287.682 715.317 287.682ZM715.363 281.091C709.703 281.091 706.931 276.045 706.931 269.659C706.931 263.273 709.703 258.159 715.363 258.159C720.931 258.159 723.703 263.273 723.703 269.659C723.703 276.045 720.931 281.091 715.363 281.091ZM755.109 252.091H747.859V249.341C747.859 246.614 748.995 245.091 752.064 245.091C753.359 245.091 754.45 245.386 755.132 245.591L756.791 239.227C755.723 238.864 753.382 238.273 750.541 238.273C744.473 238.273 739.632 241.75 739.632 248.795V252.091H734.473V258.455H739.632V287H747.859V258.455H755.109V252.091Z" fill="#F2F4F5"/>
<path d="M482.591 359V312.455H491.023V351.932H511.523V359H482.591ZM532.332 359.682C528.832 359.682 525.809 358.955 523.264 357.5C520.733 356.03 518.786 353.955 517.423 351.273C516.059 348.576 515.377 345.402 515.377 341.75C515.377 338.159 516.059 335.008 517.423 332.295C518.802 329.568 520.726 327.447 523.195 325.932C525.665 324.402 528.567 323.636 531.9 323.636C534.052 323.636 536.082 323.985 537.991 324.682C539.915 325.364 541.612 326.424 543.082 327.864C544.567 329.303 545.733 331.136 546.582 333.364C547.43 335.576 547.855 338.212 547.855 341.273V343.795H519.241V338.25H539.968C539.953 336.674 539.612 335.273 538.945 334.045C538.279 332.803 537.347 331.826 536.15 331.114C534.968 330.402 533.589 330.045 532.014 330.045C530.332 330.045 528.855 330.455 527.582 331.273C526.309 332.076 525.317 333.136 524.605 334.455C523.908 335.758 523.552 337.189 523.536 338.75V343.591C523.536 345.621 523.908 347.364 524.65 348.818C525.392 350.258 526.43 351.364 527.764 352.136C529.097 352.894 530.658 353.273 532.445 353.273C533.642 353.273 534.726 353.106 535.695 352.773C536.665 352.424 537.506 351.917 538.218 351.25C538.93 350.583 539.468 349.758 539.832 348.773L547.514 349.636C547.029 351.667 546.105 353.439 544.741 354.955C543.392 356.455 541.665 357.621 539.559 358.455C537.453 359.273 535.044 359.682 532.332 359.682ZM580.806 333.318L573.306 334.136C573.094 333.379 572.722 332.667 572.192 332C571.677 331.333 570.98 330.795 570.101 330.386C569.222 329.977 568.147 329.773 566.874 329.773C565.162 329.773 563.722 330.144 562.556 330.886C561.404 331.629 560.836 332.591 560.851 333.773C560.836 334.788 561.207 335.614 561.965 336.25C562.738 336.886 564.01 337.409 565.783 337.818L571.738 339.091C575.041 339.803 577.495 340.932 579.101 342.477C580.722 344.023 581.541 346.045 581.556 348.545C581.541 350.742 580.897 352.682 579.624 354.364C578.366 356.03 576.616 357.333 574.374 358.273C572.131 359.212 569.556 359.682 566.647 359.682C562.374 359.682 558.934 358.788 556.328 357C553.722 355.197 552.169 352.689 551.669 349.477L559.692 348.705C560.056 350.28 560.828 351.47 562.01 352.273C563.192 353.076 564.73 353.477 566.624 353.477C568.578 353.477 570.147 353.076 571.328 352.273C572.525 351.47 573.124 350.477 573.124 349.295C573.124 348.295 572.738 347.47 571.965 346.818C571.207 346.167 570.025 345.667 568.419 345.318L562.465 344.068C559.116 343.371 556.639 342.197 555.033 340.545C553.427 338.879 552.631 336.773 552.647 334.227C552.631 332.076 553.215 330.212 554.397 328.636C555.594 327.045 557.253 325.818 559.374 324.955C561.51 324.076 563.972 323.636 566.76 323.636C570.851 323.636 574.071 324.508 576.419 326.25C578.783 327.992 580.245 330.348 580.806 333.318ZM614.331 333.318L606.831 334.136C606.619 333.379 606.247 332.667 605.717 332C605.202 331.333 604.505 330.795 603.626 330.386C602.747 329.977 601.672 329.773 600.399 329.773C598.687 329.773 597.247 330.144 596.081 330.886C594.929 331.629 594.361 332.591 594.376 333.773C594.361 334.788 594.732 335.614 595.49 336.25C596.262 336.886 597.535 337.409 599.308 337.818L605.262 339.091C608.566 339.803 611.02 340.932 612.626 342.477C614.247 344.023 615.066 346.045 615.081 348.545C615.066 350.742 614.422 352.682 613.149 354.364C611.891 356.03 610.141 357.333 607.899 358.273C605.656 359.212 603.081 359.682 600.172 359.682C595.899 359.682 592.459 358.788 589.853 357C587.247 355.197 585.694 352.689 585.194 349.477L593.217 348.705C593.581 350.28 594.353 351.47 595.535 352.273C596.717 353.076 598.255 353.477 600.149 353.477C602.103 353.477 603.672 353.076 604.853 352.273C606.05 351.47 606.649 350.477 606.649 349.295C606.649 348.295 606.262 347.47 605.49 346.818C604.732 346.167 603.55 345.667 601.944 345.318L595.99 344.068C592.641 343.371 590.164 342.197 588.558 340.545C586.952 338.879 586.156 336.773 586.172 334.227C586.156 332.076 586.74 330.212 587.922 328.636C589.119 327.045 590.778 325.818 592.899 324.955C595.035 324.076 597.497 323.636 600.285 323.636C604.376 323.636 607.596 324.508 609.944 326.25C612.308 327.992 613.77 330.348 614.331 333.318ZM634.903 359V312.455H643.131V329.864H643.472C643.896 329.015 644.494 328.114 645.267 327.159C646.04 326.189 647.085 325.364 648.403 324.682C649.722 323.985 651.403 323.636 653.449 323.636C656.146 323.636 658.578 324.326 660.744 325.705C662.926 327.068 664.653 329.091 665.926 331.773C667.214 334.439 667.858 337.712 667.858 341.591C667.858 345.424 667.229 348.682 665.972 351.364C664.714 354.045 663.002 356.091 660.835 357.5C658.669 358.909 656.214 359.614 653.472 359.614C651.472 359.614 649.813 359.28 648.494 358.614C647.176 357.947 646.116 357.144 645.312 356.205C644.525 355.25 643.911 354.348 643.472 353.5H642.994V359H634.903ZM642.972 341.545C642.972 343.803 643.29 345.78 643.926 347.477C644.578 349.174 645.509 350.5 646.722 351.455C647.949 352.394 649.434 352.864 651.176 352.864C652.994 352.864 654.517 352.379 655.744 351.409C656.972 350.424 657.896 349.083 658.517 347.386C659.153 345.674 659.472 343.727 659.472 341.545C659.472 339.379 659.161 337.455 658.54 335.773C657.919 334.091 656.994 332.773 655.767 331.818C654.54 330.864 653.009 330.386 651.176 330.386C649.419 330.386 647.926 330.848 646.699 331.773C645.472 332.697 644.54 333.992 643.903 335.659C643.282 337.326 642.972 339.288 642.972 341.545ZM673.252 359V324.091H681.48V359H673.252ZM677.389 319.136C676.086 319.136 674.964 318.705 674.025 317.841C673.086 316.962 672.616 315.909 672.616 314.682C672.616 313.439 673.086 312.386 674.025 311.523C674.964 310.644 676.086 310.205 677.389 310.205C678.707 310.205 679.828 310.644 680.752 311.523C681.692 312.386 682.161 313.439 682.161 314.682C682.161 315.909 681.692 316.962 680.752 317.841C679.828 318.705 678.707 319.136 677.389 319.136ZM698.385 359.705C696.173 359.705 694.181 359.311 692.408 358.523C690.65 357.72 689.256 356.538 688.226 354.977C687.211 353.417 686.703 351.492 686.703 349.205C686.703 347.235 687.067 345.606 687.794 344.318C688.522 343.03 689.514 342 690.772 341.227C692.029 340.455 693.446 339.871 695.022 339.477C696.613 339.068 698.256 338.773 699.953 338.591C701.999 338.379 703.658 338.189 704.931 338.023C706.203 337.841 707.128 337.568 707.703 337.205C708.294 336.826 708.59 336.242 708.59 335.455V335.318C708.59 333.606 708.082 332.28 707.067 331.341C706.052 330.402 704.59 329.932 702.681 329.932C700.666 329.932 699.067 330.371 697.885 331.25C696.719 332.129 695.931 333.167 695.522 334.364L687.84 333.273C688.446 331.152 689.446 329.379 690.84 327.955C692.234 326.515 693.938 325.439 695.953 324.727C697.969 324 700.196 323.636 702.635 323.636C704.317 323.636 705.991 323.833 707.658 324.227C709.325 324.621 710.847 325.273 712.226 326.182C713.605 327.076 714.711 328.295 715.544 329.841C716.393 331.386 716.817 333.318 716.817 335.636V359H708.908V354.205H708.635C708.135 355.174 707.431 356.083 706.522 356.932C705.628 357.765 704.499 358.439 703.135 358.955C701.787 359.455 700.203 359.705 698.385 359.705ZM700.522 353.659C702.173 353.659 703.605 353.333 704.817 352.682C706.029 352.015 706.961 351.136 707.613 350.045C708.279 348.955 708.613 347.765 708.613 346.477V342.364C708.355 342.576 707.916 342.773 707.294 342.955C706.688 343.136 706.006 343.295 705.249 343.432C704.491 343.568 703.741 343.689 702.999 343.795C702.256 343.902 701.613 343.992 701.067 344.068C699.84 344.235 698.741 344.508 697.772 344.886C696.802 345.265 696.037 345.795 695.476 346.477C694.916 347.144 694.635 348.008 694.635 349.068C694.635 350.583 695.188 351.727 696.294 352.5C697.4 353.273 698.809 353.659 700.522 353.659ZM751.081 333.318L743.581 334.136C743.369 333.379 742.997 332.667 742.467 332C741.952 331.333 741.255 330.795 740.376 330.386C739.497 329.977 738.422 329.773 737.149 329.773C735.437 329.773 733.997 330.144 732.831 330.886C731.679 331.629 731.111 332.591 731.126 333.773C731.111 334.788 731.482 335.614 732.24 336.25C733.012 336.886 734.285 337.409 736.058 337.818L742.012 339.091C745.316 339.803 747.77 340.932 749.376 342.477C750.997 344.023 751.816 346.045 751.831 348.545C751.816 350.742 751.172 352.682 749.899 354.364C748.641 356.03 746.891 357.333 744.649 358.273C742.406 359.212 739.831 359.682 736.922 359.682C732.649 359.682 729.209 358.788 726.603 357C723.997 355.197 722.444 352.689 721.944 349.477L729.967 348.705C730.331 350.28 731.103 351.47 732.285 352.273C733.467 353.076 735.005 353.477 736.899 353.477C738.853 353.477 740.422 353.076 741.603 352.273C742.8 351.47 743.399 350.477 743.399 349.295C743.399 348.295 743.012 347.47 742.24 346.818C741.482 346.167 740.3 345.667 738.694 345.318L732.74 344.068C729.391 343.371 726.914 342.197 725.308 340.545C723.702 338.879 722.906 336.773 722.922 334.227C722.906 332.076 723.49 330.212 724.672 328.636C725.869 327.045 727.528 325.818 729.649 324.955C731.785 324.076 734.247 323.636 737.035 323.636C741.126 323.636 744.346 324.508 746.694 326.25C749.058 327.992 750.52 330.348 751.081 333.318ZM762.083 359.5C760.704 359.5 759.522 359.015 758.538 358.045C757.553 357.076 757.068 355.894 757.083 354.5C757.068 353.136 757.553 351.97 758.538 351C759.522 350.03 760.704 349.545 762.083 349.545C763.416 349.545 764.575 350.03 765.56 351C766.56 351.97 767.068 353.136 767.083 354.5C767.068 355.424 766.825 356.265 766.356 357.023C765.901 357.78 765.295 358.386 764.538 358.841C763.795 359.28 762.977 359.5 762.083 359.5ZM787.178 359V312.455H804.997C808.36 312.455 811.156 312.985 813.383 314.045C815.625 315.091 817.3 316.523 818.406 318.341C819.527 320.159 820.087 322.22 820.087 324.523C820.087 326.417 819.724 328.038 818.997 329.386C818.269 330.72 817.292 331.803 816.065 332.636C814.837 333.47 813.466 334.068 811.951 334.432V334.886C813.603 334.977 815.186 335.485 816.701 336.409C818.231 337.318 819.481 338.606 820.451 340.273C821.421 341.939 821.906 343.955 821.906 346.318C821.906 348.727 821.322 350.894 820.156 352.818C818.989 354.727 817.231 356.235 814.883 357.341C812.534 358.447 809.58 359 806.019 359H787.178ZM795.61 351.955H804.678C807.739 351.955 809.944 351.371 811.292 350.205C812.656 349.023 813.337 347.508 813.337 345.659C813.337 344.28 812.997 343.038 812.315 341.932C811.633 340.811 810.663 339.932 809.406 339.295C808.148 338.644 806.648 338.318 804.906 338.318H795.61V351.955ZM795.61 332.25H803.951C805.406 332.25 806.716 331.985 807.883 331.455C809.05 330.909 809.966 330.144 810.633 329.159C811.315 328.159 811.656 326.977 811.656 325.614C811.656 323.811 811.019 322.326 809.747 321.159C808.489 319.992 806.618 319.409 804.133 319.409H795.61V332.25ZM842.732 359.682C839.232 359.682 836.209 358.955 833.664 357.5C831.133 356.03 829.186 353.955 827.823 351.273C826.459 348.576 825.777 345.402 825.777 341.75C825.777 338.159 826.459 335.008 827.823 332.295C829.202 329.568 831.126 327.447 833.595 325.932C836.065 324.402 838.967 323.636 842.3 323.636C844.452 323.636 846.482 323.985 848.391 324.682C850.315 325.364 852.012 326.424 853.482 327.864C854.967 329.303 856.133 331.136 856.982 333.364C857.83 335.576 858.255 338.212 858.255 341.273V343.795H829.641V338.25H850.368C850.353 336.674 850.012 335.273 849.345 334.045C848.679 332.803 847.747 331.826 846.55 331.114C845.368 330.402 843.989 330.045 842.414 330.045C840.732 330.045 839.255 330.455 837.982 331.273C836.709 332.076 835.717 333.136 835.005 334.455C834.308 335.758 833.952 337.189 833.936 338.75V343.591C833.936 345.621 834.308 347.364 835.05 348.818C835.792 350.258 836.83 351.364 838.164 352.136C839.497 352.894 841.058 353.273 842.845 353.273C844.042 353.273 845.126 353.106 846.095 352.773C847.065 352.424 847.906 351.917 848.618 351.25C849.33 350.583 849.868 349.758 850.232 348.773L857.914 349.636C857.429 351.667 856.505 353.439 855.141 354.955C853.792 356.455 852.065 357.621 849.959 358.455C847.853 359.273 845.444 359.682 842.732 359.682ZM881.047 324.091V330.455H860.978V324.091H881.047ZM865.933 315.727H874.16V348.5C874.16 349.606 874.327 350.455 874.66 351.045C875.009 351.621 875.463 352.015 876.024 352.227C876.584 352.439 877.206 352.545 877.888 352.545C878.403 352.545 878.872 352.508 879.297 352.432C879.736 352.356 880.069 352.288 880.297 352.227L881.683 358.659C881.244 358.811 880.615 358.977 879.797 359.159C878.994 359.341 878.009 359.447 876.842 359.477C874.781 359.538 872.925 359.227 871.274 358.545C869.622 357.848 868.312 356.773 867.342 355.318C866.388 353.864 865.918 352.045 865.933 349.864V315.727ZM903.759 324.091V330.455H883.691V324.091H903.759ZM888.645 315.727H896.873V348.5C896.873 349.606 897.039 350.455 897.373 351.045C897.721 351.621 898.176 352.015 898.736 352.227C899.297 352.439 899.918 352.545 900.6 352.545C901.115 352.545 901.585 352.508 902.009 352.432C902.448 352.356 902.782 352.288 903.009 352.227L904.395 358.659C903.956 358.811 903.327 358.977 902.509 359.159C901.706 359.341 900.721 359.447 899.555 359.477C897.494 359.538 895.638 359.227 893.986 358.545C892.335 357.848 891.024 356.773 890.055 355.318C889.1 353.864 888.63 352.045 888.645 349.864V315.727ZM924.119 359.682C920.619 359.682 917.597 358.955 915.051 357.5C912.521 356.03 910.574 353.955 909.21 351.273C907.847 348.576 907.165 345.402 907.165 341.75C907.165 338.159 907.847 335.008 909.21 332.295C910.589 329.568 912.513 327.447 914.983 325.932C917.453 324.402 920.354 323.636 923.688 323.636C925.839 323.636 927.869 323.985 929.778 324.682C931.703 325.364 933.4 326.424 934.869 327.864C936.354 329.303 937.521 331.136 938.369 333.364C939.218 335.576 939.642 338.212 939.642 341.273V343.795H911.028V338.25H931.756C931.741 336.674 931.4 335.273 930.733 334.045C930.066 332.803 929.134 331.826 927.938 331.114C926.756 330.402 925.377 330.045 923.801 330.045C922.119 330.045 920.642 330.455 919.369 331.273C918.097 332.076 917.104 333.136 916.392 334.455C915.695 335.758 915.339 337.189 915.324 338.75V343.591C915.324 345.621 915.695 347.364 916.438 348.818C917.18 350.258 918.218 351.364 919.551 352.136C920.884 352.894 922.445 353.273 924.233 353.273C925.43 353.273 926.513 353.106 927.483 352.773C928.453 352.424 929.294 351.917 930.006 351.25C930.718 350.583 931.256 349.758 931.619 348.773L939.301 349.636C938.816 351.667 937.892 353.439 936.528 354.955C935.18 356.455 933.453 357.621 931.347 358.455C929.241 359.273 926.831 359.682 924.119 359.682ZM945.002 359V324.091H952.98V329.909H953.343C953.98 327.894 955.07 326.341 956.616 325.25C958.177 324.144 959.957 323.591 961.957 323.591C962.411 323.591 962.919 323.614 963.48 323.659C964.055 323.689 964.533 323.742 964.911 323.818V331.386C964.563 331.265 964.01 331.159 963.252 331.068C962.51 330.962 961.79 330.909 961.093 330.909C959.593 330.909 958.245 331.235 957.048 331.886C955.866 332.523 954.934 333.409 954.252 334.545C953.57 335.682 953.23 336.992 953.23 338.477V359H945.002ZM991.28 338.545V359H983.052V312.455H991.098V330.023H991.507C992.325 328.053 993.59 326.5 995.302 325.364C997.03 324.212 999.227 323.636 1001.89 323.636C1004.32 323.636 1006.43 324.144 1008.23 325.159C1010.04 326.174 1011.43 327.659 1012.42 329.614C1013.42 331.568 1013.92 333.955 1013.92 336.773V359H1005.69V338.045C1005.69 335.697 1005.08 333.871 1003.87 332.568C1002.67 331.25 1000.99 330.591 998.825 330.591C997.37 330.591 996.067 330.909 994.916 331.545C993.78 332.167 992.886 333.068 992.234 334.25C991.598 335.432 991.28 336.864 991.28 338.545ZM1020.7 359V324.091H1028.93V359H1020.7ZM1024.84 319.136C1023.54 319.136 1022.41 318.705 1021.47 317.841C1020.54 316.962 1020.07 315.909 1020.07 314.682C1020.07 313.439 1020.54 312.386 1021.47 311.523C1022.41 310.644 1023.54 310.205 1024.84 310.205C1026.16 310.205 1027.28 310.644 1028.2 311.523C1029.14 312.386 1029.61 313.439 1029.61 314.682C1029.61 315.909 1029.14 316.962 1028.2 317.841C1027.28 318.705 1026.16 319.136 1024.84 319.136ZM1035.79 359V324.091H1043.77V329.909H1044.13C1044.77 327.894 1045.86 326.341 1047.4 325.25C1048.96 324.144 1050.74 323.591 1052.74 323.591C1053.2 323.591 1053.71 323.614 1054.27 323.659C1054.84 323.689 1055.32 323.742 1055.7 323.818V331.386C1055.35 331.265 1054.8 331.159 1054.04 331.068C1053.3 330.962 1052.58 330.909 1051.88 330.909C1050.38 330.909 1049.03 331.235 1047.84 331.886C1046.65 332.523 1045.72 333.409 1045.04 334.545C1044.36 335.682 1044.02 336.992 1044.02 338.477V359H1035.79ZM1073.58 359.682C1070.08 359.682 1067.06 358.955 1064.51 357.5C1061.98 356.03 1060.04 353.955 1058.67 351.273C1057.31 348.576 1056.63 345.402 1056.63 341.75C1056.63 338.159 1057.31 335.008 1058.67 332.295C1060.05 329.568 1061.98 327.447 1064.45 325.932C1066.92 324.402 1069.82 323.636 1073.15 323.636C1075.3 323.636 1077.33 323.985 1079.24 324.682C1081.17 325.364 1082.86 326.424 1084.33 327.864C1085.82 329.303 1086.98 331.136 1087.83 333.364C1088.68 335.576 1089.1 338.212 1089.1 341.273V343.795H1060.49V338.25H1081.22C1081.2 336.674 1080.86 335.273 1080.2 334.045C1079.53 332.803 1078.6 331.826 1077.4 331.114C1076.22 330.402 1074.84 330.045 1073.26 330.045C1071.58 330.045 1070.1 330.455 1068.83 331.273C1067.56 332.076 1066.57 333.136 1065.85 334.455C1065.16 335.758 1064.8 337.189 1064.79 338.75V343.591C1064.79 345.621 1065.16 347.364 1065.9 348.818C1066.64 350.258 1067.68 351.364 1069.01 352.136C1070.35 352.894 1071.91 353.273 1073.7 353.273C1074.89 353.273 1075.98 353.106 1076.95 352.773C1077.92 352.424 1078.76 351.917 1079.47 351.25C1080.18 350.583 1080.72 349.758 1081.08 348.773L1088.76 349.636C1088.28 351.667 1087.35 353.439 1085.99 354.955C1084.64 356.455 1082.92 357.621 1080.81 358.455C1078.7 359.273 1076.29 359.682 1073.58 359.682ZM1122.06 333.318L1114.56 334.136C1114.34 333.379 1113.97 332.667 1113.44 332C1112.93 331.333 1112.23 330.795 1111.35 330.386C1110.47 329.977 1109.4 329.773 1108.12 329.773C1106.41 329.773 1104.97 330.144 1103.81 330.886C1102.65 331.629 1102.09 332.591 1102.1 333.773C1102.09 334.788 1102.46 335.614 1103.21 336.25C1103.99 336.886 1105.26 337.409 1107.03 337.818L1112.99 339.091C1116.29 339.803 1118.75 340.932 1120.35 342.477C1121.97 344.023 1122.79 346.045 1122.81 348.545C1122.79 350.742 1122.15 352.682 1120.87 354.364C1119.62 356.03 1117.87 357.333 1115.62 358.273C1113.38 359.212 1110.81 359.682 1107.9 359.682C1103.62 359.682 1100.18 358.788 1097.58 357C1094.97 355.197 1093.42 352.689 1092.92 349.477L1100.94 348.705C1101.31 350.28 1102.08 351.47 1103.26 352.273C1104.44 353.076 1105.98 353.477 1107.87 353.477C1109.83 353.477 1111.4 353.076 1112.58 352.273C1113.78 351.47 1114.37 350.477 1114.37 349.295C1114.37 348.295 1113.99 347.47 1113.21 346.818C1112.46 346.167 1111.28 345.667 1109.67 345.318L1103.71 344.068C1100.37 343.371 1097.89 342.197 1096.28 340.545C1094.68 338.879 1093.88 336.773 1093.9 334.227C1093.88 332.076 1094.46 330.212 1095.65 328.636C1096.84 327.045 1098.5 325.818 1100.62 324.955C1102.76 324.076 1105.22 323.636 1108.01 323.636C1112.1 323.636 1115.32 324.508 1117.67 326.25C1120.03 327.992 1121.5 330.348 1122.06 333.318ZM1133.06 359.5C1131.68 359.5 1130.5 359.015 1129.51 358.045C1128.53 357.076 1128.04 355.894 1128.06 354.5C1128.04 353.136 1128.53 351.97 1129.51 351C1130.5 350.03 1131.68 349.545 1133.06 349.545C1134.39 349.545 1135.55 350.03 1136.54 351C1137.54 351.97 1138.04 353.136 1138.06 354.5C1138.04 355.424 1137.8 356.265 1137.33 357.023C1136.88 357.78 1136.27 358.386 1135.51 358.841C1134.77 359.28 1133.95 359.5 1133.06 359.5ZM482.591 427V380.455H500.409C503.773 380.455 506.568 380.985 508.795 382.045C511.038 383.091 512.712 384.523 513.818 386.341C514.939 388.159 515.5 390.22 515.5 392.523C515.5 394.417 515.136 396.038 514.409 397.386C513.682 398.72 512.705 399.803 511.477 400.636C510.25 401.47 508.879 402.068 507.364 402.432V402.886C509.015 402.977 510.598 403.485 512.114 404.409C513.644 405.318 514.894 406.606 515.864 408.273C516.833 409.939 517.318 411.955 517.318 414.318C517.318 416.727 516.735 418.894 515.568 420.818C514.402 422.727 512.644 424.235 510.295 425.341C507.947 426.447 504.992 427 501.432 427H482.591ZM491.023 419.955H500.091C503.152 419.955 505.356 419.371 506.705 418.205C508.068 417.023 508.75 415.508 508.75 413.659C508.75 412.28 508.409 411.038 507.727 409.932C507.045 408.811 506.076 407.932 504.818 407.295C503.561 406.644 502.061 406.318 500.318 406.318H491.023V419.955ZM491.023 400.25H499.364C500.818 400.25 502.129 399.985 503.295 399.455C504.462 398.909 505.379 398.144 506.045 397.159C506.727 396.159 507.068 394.977 507.068 393.614C507.068 391.811 506.432 390.326 505.159 389.159C503.902 387.992 502.03 387.409 499.545 387.409H491.023V400.25ZM538.144 427.682C534.644 427.682 531.622 426.955 529.076 425.5C526.546 424.03 524.599 421.955 523.235 419.273C521.872 416.576 521.19 413.402 521.19 409.75C521.19 406.159 521.872 403.008 523.235 400.295C524.614 397.568 526.538 395.447 529.008 393.932C531.478 392.402 534.379 391.636 537.713 391.636C539.864 391.636 541.894 391.985 543.803 392.682C545.728 393.364 547.425 394.424 548.894 395.864C550.379 397.303 551.546 399.136 552.394 401.364C553.243 403.576 553.667 406.212 553.667 409.273V411.795H525.053V406.25H545.781C545.766 404.674 545.425 403.273 544.758 402.045C544.091 400.803 543.159 399.826 541.963 399.114C540.781 398.402 539.402 398.045 537.826 398.045C536.144 398.045 534.667 398.455 533.394 399.273C532.122 400.076 531.129 401.136 530.417 402.455C529.72 403.758 529.364 405.189 529.349 406.75V411.591C529.349 413.621 529.72 415.364 530.463 416.818C531.205 418.258 532.243 419.364 533.576 420.136C534.909 420.894 536.47 421.273 538.258 421.273C539.455 421.273 540.538 421.106 541.508 420.773C542.478 420.424 543.319 419.917 544.031 419.25C544.743 418.583 545.281 417.758 545.644 416.773L553.326 417.636C552.841 419.667 551.917 421.439 550.553 422.955C549.205 424.455 547.478 425.621 545.372 426.455C543.266 427.273 540.856 427.682 538.144 427.682ZM576.459 392.091V398.455H556.391V392.091H576.459ZM561.345 383.727H569.573V416.5C569.573 417.606 569.739 418.455 570.073 419.045C570.421 419.621 570.876 420.015 571.436 420.227C571.997 420.439 572.618 420.545 573.3 420.545C573.815 420.545 574.285 420.508 574.709 420.432C575.148 420.356 575.482 420.288 575.709 420.227L577.095 426.659C576.656 426.811 576.027 426.977 575.209 427.159C574.406 427.341 573.421 427.447 572.255 427.477C570.194 427.538 568.338 427.227 566.686 426.545C565.035 425.848 563.724 424.773 562.755 423.318C561.8 421.864 561.33 420.045 561.345 417.864V383.727ZM599.172 392.091V398.455H579.103V392.091H599.172ZM584.058 383.727H592.285V416.5C592.285 417.606 592.452 418.455 592.785 419.045C593.134 419.621 593.588 420.015 594.149 420.227C594.709 420.439 595.331 420.545 596.012 420.545C596.528 420.545 596.997 420.508 597.422 420.432C597.861 420.356 598.194 420.288 598.422 420.227L599.808 426.659C599.369 426.811 598.74 426.977 597.922 427.159C597.119 427.341 596.134 427.447 594.967 427.477C592.906 427.538 591.05 427.227 589.399 426.545C587.747 425.848 586.437 424.773 585.467 423.318C584.512 421.864 584.043 420.045 584.058 417.864V383.727ZM619.532 427.682C616.032 427.682 613.009 426.955 610.464 425.5C607.933 424.03 605.986 421.955 604.623 419.273C603.259 416.576 602.577 413.402 602.577 409.75C602.577 406.159 603.259 403.008 604.623 400.295C606.002 397.568 607.926 395.447 610.395 393.932C612.865 392.402 615.767 391.636 619.1 391.636C621.252 391.636 623.282 391.985 625.191 392.682C627.115 393.364 628.812 394.424 630.282 395.864C631.767 397.303 632.933 399.136 633.782 401.364C634.63 403.576 635.055 406.212 635.055 409.273V411.795H606.441V406.25H627.168C627.153 404.674 626.812 403.273 626.145 402.045C625.479 400.803 624.547 399.826 623.35 399.114C622.168 398.402 620.789 398.045 619.214 398.045C617.532 398.045 616.055 398.455 614.782 399.273C613.509 400.076 612.517 401.136 611.805 402.455C611.108 403.758 610.752 405.189 610.736 406.75V411.591C610.736 413.621 611.108 415.364 611.85 416.818C612.592 418.258 613.63 419.364 614.964 420.136C616.297 420.894 617.858 421.273 619.645 421.273C620.842 421.273 621.926 421.106 622.895 420.773C623.865 420.424 624.706 419.917 625.418 419.25C626.13 418.583 626.668 417.758 627.032 416.773L634.714 417.636C634.229 419.667 633.305 421.439 631.941 422.955C630.592 424.455 628.865 425.621 626.759 426.455C624.653 427.273 622.244 427.682 619.532 427.682ZM640.415 427V392.091H648.392V397.909H648.756C649.392 395.894 650.483 394.341 652.028 393.25C653.589 392.144 655.369 391.591 657.369 391.591C657.824 391.591 658.331 391.614 658.892 391.659C659.468 391.689 659.945 391.742 660.324 391.818V399.386C659.975 399.265 659.422 399.159 658.665 399.068C657.922 398.962 657.203 398.909 656.506 398.909C655.006 398.909 653.657 399.235 652.46 399.886C651.278 400.523 650.347 401.409 649.665 402.545C648.983 403.682 648.642 404.992 648.642 406.477V427H640.415ZM693.692 427.682C690.207 427.682 687.215 426.917 684.715 425.386C682.23 423.856 680.313 421.742 678.965 419.045C677.631 416.333 676.965 413.212 676.965 409.682C676.965 406.136 677.647 403.008 679.01 400.295C680.374 397.568 682.298 395.447 684.783 393.932C687.283 392.402 690.238 391.636 693.647 391.636C696.48 391.636 698.988 392.159 701.169 393.205C703.366 394.235 705.116 395.697 706.419 397.591C707.722 399.47 708.465 401.667 708.647 404.182H700.783C700.465 402.5 699.707 401.098 698.51 399.977C697.328 398.841 695.745 398.273 693.76 398.273C692.078 398.273 690.601 398.727 689.328 399.636C688.056 400.53 687.063 401.818 686.351 403.5C685.654 405.182 685.306 407.197 685.306 409.545C685.306 411.924 685.654 413.97 686.351 415.682C687.048 417.379 688.025 418.689 689.283 419.614C690.556 420.523 692.048 420.977 693.76 420.977C694.972 420.977 696.056 420.75 697.01 420.295C697.98 419.826 698.791 419.152 699.442 418.273C700.094 417.394 700.541 416.326 700.783 415.068H708.647C708.45 417.538 707.722 419.727 706.465 421.636C705.207 423.53 703.495 425.015 701.328 426.091C699.162 427.152 696.616 427.682 693.692 427.682ZM723.848 427.705C721.636 427.705 719.643 427.311 717.87 426.523C716.113 425.72 714.719 424.538 713.689 422.977C712.673 421.417 712.166 419.492 712.166 417.205C712.166 415.235 712.53 413.606 713.257 412.318C713.984 411.03 714.977 410 716.234 409.227C717.492 408.455 718.908 407.871 720.484 407.477C722.075 407.068 723.719 406.773 725.416 406.591C727.461 406.379 729.12 406.189 730.393 406.023C731.666 405.841 732.59 405.568 733.166 405.205C733.757 404.826 734.052 404.242 734.052 403.455V403.318C734.052 401.606 733.545 400.28 732.53 399.341C731.514 398.402 730.052 397.932 728.143 397.932C726.128 397.932 724.53 398.371 723.348 399.25C722.181 400.129 721.393 401.167 720.984 402.364L713.302 401.273C713.908 399.152 714.908 397.379 716.302 395.955C717.696 394.515 719.401 393.439 721.416 392.727C723.431 392 725.658 391.636 728.098 391.636C729.78 391.636 731.454 391.833 733.12 392.227C734.787 392.621 736.31 393.273 737.689 394.182C739.067 395.076 740.173 396.295 741.007 397.841C741.855 399.386 742.28 401.318 742.28 403.636V427H734.37V422.205H734.098C733.598 423.174 732.893 424.083 731.984 424.932C731.09 425.765 729.961 426.439 728.598 426.955C727.249 427.455 725.666 427.705 723.848 427.705ZM725.984 421.659C727.636 421.659 729.067 421.333 730.28 420.682C731.492 420.015 732.423 419.136 733.075 418.045C733.742 416.955 734.075 415.765 734.075 414.477V410.364C733.817 410.576 733.378 410.773 732.757 410.955C732.151 411.136 731.469 411.295 730.711 411.432C729.954 411.568 729.204 411.689 728.461 411.795C727.719 411.902 727.075 411.992 726.53 412.068C725.302 412.235 724.204 412.508 723.234 412.886C722.264 413.265 721.499 413.795 720.939 414.477C720.378 415.144 720.098 416.008 720.098 417.068C720.098 418.583 720.651 419.727 721.757 420.5C722.863 421.273 724.272 421.659 725.984 421.659ZM757.18 406.545V427H748.952V392.091H756.816V398.023H757.225C758.028 396.068 759.308 394.515 761.066 393.364C762.839 392.212 765.028 391.636 767.634 391.636C770.043 391.636 772.142 392.152 773.93 393.182C775.733 394.212 777.127 395.705 778.111 397.659C779.111 399.614 779.604 401.985 779.589 404.773V427H771.361V406.045C771.361 403.712 770.755 401.886 769.543 400.568C768.346 399.25 766.687 398.591 764.566 398.591C763.127 398.591 761.846 398.909 760.725 399.545C759.619 400.167 758.748 401.068 758.111 402.25C757.49 403.432 757.18 404.864 757.18 406.545ZM799.307 427.614C796.564 427.614 794.11 426.909 791.943 425.5C789.777 424.091 788.064 422.045 786.807 419.364C785.549 416.682 784.92 413.424 784.92 409.591C784.92 405.712 785.557 402.439 786.83 399.773C788.117 397.091 789.852 395.068 792.034 393.705C794.216 392.326 796.648 391.636 799.33 391.636C801.375 391.636 803.057 391.985 804.375 392.682C805.693 393.364 806.739 394.189 807.511 395.159C808.284 396.114 808.883 397.015 809.307 397.864H809.648V380.455H817.898V427H809.807V421.5H809.307C808.883 422.348 808.269 423.25 807.466 424.205C806.663 425.144 805.602 425.947 804.284 426.614C802.966 427.28 801.307 427.614 799.307 427.614ZM801.602 420.864C803.345 420.864 804.83 420.394 806.057 419.455C807.284 418.5 808.216 417.174 808.852 415.477C809.489 413.78 809.807 411.803 809.807 409.545C809.807 407.288 809.489 405.326 808.852 403.659C808.231 401.992 807.307 400.697 806.08 399.773C804.867 398.848 803.375 398.386 801.602 398.386C799.769 398.386 798.239 398.864 797.011 399.818C795.784 400.773 794.86 402.091 794.239 403.773C793.617 405.455 793.307 407.379 793.307 409.545C793.307 411.727 793.617 413.674 794.239 415.386C794.875 417.083 795.807 418.424 797.034 419.409C798.277 420.379 799.799 420.864 801.602 420.864ZM825.065 427V392.091H833.292V427H825.065ZM829.201 387.136C827.898 387.136 826.777 386.705 825.837 385.841C824.898 384.962 824.428 383.909 824.428 382.682C824.428 381.439 824.898 380.386 825.837 379.523C826.777 378.644 827.898 378.205 829.201 378.205C830.519 378.205 831.641 378.644 832.565 379.523C833.504 380.386 833.974 381.439 833.974 382.682C833.974 383.909 833.504 384.962 832.565 385.841C831.641 386.705 830.519 387.136 829.201 387.136ZM853.107 427.614C850.364 427.614 847.91 426.909 845.743 425.5C843.577 424.091 841.864 422.045 840.607 419.364C839.349 416.682 838.72 413.424 838.72 409.591C838.72 405.712 839.357 402.439 840.63 399.773C841.917 397.091 843.652 395.068 845.834 393.705C848.016 392.326 850.448 391.636 853.13 391.636C855.175 391.636 856.857 391.985 858.175 392.682C859.493 393.364 860.539 394.189 861.311 395.159C862.084 396.114 862.683 397.015 863.107 397.864H863.448V380.455H871.698V427H863.607V421.5H863.107C862.683 422.348 862.069 423.25 861.266 424.205C860.463 425.144 859.402 425.947 858.084 426.614C856.766 427.28 855.107 427.614 853.107 427.614ZM855.402 420.864C857.145 420.864 858.63 420.394 859.857 419.455C861.084 418.5 862.016 417.174 862.652 415.477C863.289 413.78 863.607 411.803 863.607 409.545C863.607 407.288 863.289 405.326 862.652 403.659C862.031 401.992 861.107 400.697 859.88 399.773C858.667 398.848 857.175 398.386 855.402 398.386C853.569 398.386 852.039 398.864 850.811 399.818C849.584 400.773 848.66 402.091 848.039 403.773C847.417 405.455 847.107 407.379 847.107 409.545C847.107 411.727 847.417 413.674 848.039 415.386C848.675 417.083 849.607 418.424 850.834 419.409C852.077 420.379 853.599 420.864 855.402 420.864ZM888.91 427.705C886.698 427.705 884.706 427.311 882.933 426.523C881.175 425.72 879.781 424.538 878.751 422.977C877.736 421.417 877.228 419.492 877.228 417.205C877.228 415.235 877.592 413.606 878.319 412.318C879.047 411.03 880.039 410 881.297 409.227C882.554 408.455 883.971 407.871 885.547 407.477C887.138 407.068 888.781 406.773 890.478 406.591C892.524 406.379 894.183 406.189 895.456 406.023C896.728 405.841 897.653 405.568 898.228 405.205C898.819 404.826 899.115 404.242 899.115 403.455V403.318C899.115 401.606 898.607 400.28 897.592 399.341C896.577 398.402 895.115 397.932 893.206 397.932C891.191 397.932 889.592 398.371 888.41 399.25C887.244 400.129 886.456 401.167 886.047 402.364L878.365 401.273C878.971 399.152 879.971 397.379 881.365 395.955C882.759 394.515 884.463 393.439 886.478 392.727C888.494 392 890.721 391.636 893.16 391.636C894.842 391.636 896.516 391.833 898.183 392.227C899.85 392.621 901.372 393.273 902.751 394.182C904.13 395.076 905.236 396.295 906.069 397.841C906.918 399.386 907.342 401.318 907.342 403.636V427H899.433V422.205H899.16C898.66 423.174 897.956 424.083 897.047 424.932C896.153 425.765 895.024 426.439 893.66 426.955C892.312 427.455 890.728 427.705 888.91 427.705ZM891.047 421.659C892.698 421.659 894.13 421.333 895.342 420.682C896.554 420.015 897.486 419.136 898.138 418.045C898.804 416.955 899.138 415.765 899.138 414.477V410.364C898.88 410.576 898.441 410.773 897.819 410.955C897.213 411.136 896.531 411.295 895.774 411.432C895.016 411.568 894.266 411.689 893.524 411.795C892.781 411.902 892.138 411.992 891.592 412.068C890.365 412.235 889.266 412.508 888.297 412.886C887.327 413.265 886.562 413.795 886.001 414.477C885.441 415.144 885.16 416.008 885.16 417.068C885.16 418.583 885.713 419.727 886.819 420.5C887.925 421.273 889.334 421.659 891.047 421.659ZM931.447 392.091V398.455H911.378V392.091H931.447ZM916.333 383.727H924.56V416.5C924.56 417.606 924.727 418.455 925.06 419.045C925.409 419.621 925.863 420.015 926.424 420.227C926.984 420.439 927.606 420.545 928.288 420.545C928.803 420.545 929.272 420.508 929.697 420.432C930.136 420.356 930.469 420.288 930.697 420.227L932.083 426.659C931.644 426.811 931.015 426.977 930.197 427.159C929.394 427.341 928.409 427.447 927.242 427.477C925.181 427.538 923.325 427.227 921.674 426.545C920.022 425.848 918.712 424.773 917.742 423.318C916.788 421.864 916.318 420.045 916.333 417.864V383.727ZM951.807 427.682C948.307 427.682 945.284 426.955 942.739 425.5C940.208 424.03 938.261 421.955 936.898 419.273C935.534 416.576 934.852 413.402 934.852 409.75C934.852 406.159 935.534 403.008 936.898 400.295C938.277 397.568 940.201 395.447 942.67 393.932C945.14 392.402 948.042 391.636 951.375 391.636C953.527 391.636 955.557 391.985 957.466 392.682C959.39 393.364 961.087 394.424 962.557 395.864C964.042 397.303 965.208 399.136 966.057 401.364C966.905 403.576 967.33 406.212 967.33 409.273V411.795H938.716V406.25H959.443C959.428 404.674 959.087 403.273 958.42 402.045C957.754 400.803 956.822 399.826 955.625 399.114C954.443 398.402 953.064 398.045 951.489 398.045C949.807 398.045 948.33 398.455 947.057 399.273C945.784 400.076 944.792 401.136 944.08 402.455C943.383 403.758 943.027 405.189 943.011 406.75V411.591C943.011 413.621 943.383 415.364 944.125 416.818C944.867 418.258 945.905 419.364 947.239 420.136C948.572 420.894 950.133 421.273 951.92 421.273C953.117 421.273 954.201 421.106 955.17 420.773C956.14 420.424 956.981 419.917 957.693 419.25C958.405 418.583 958.943 417.758 959.307 416.773L966.989 417.636C966.504 419.667 965.58 421.439 964.216 422.955C962.867 424.455 961.14 425.621 959.034 426.455C956.928 427.273 954.519 427.682 951.807 427.682ZM1002.42 427.682C998.919 427.682 995.897 426.955 993.351 425.5C990.821 424.03 988.874 421.955 987.51 419.273C986.147 416.576 985.465 413.402 985.465 409.75C985.465 406.159 986.147 403.008 987.51 400.295C988.889 397.568 990.813 395.447 993.283 393.932C995.753 392.402 998.654 391.636 1001.99 391.636C1004.14 391.636 1006.17 391.985 1008.08 392.682C1010 393.364 1011.7 394.424 1013.17 395.864C1014.65 397.303 1015.82 399.136 1016.67 401.364C1017.52 403.576 1017.94 406.212 1017.94 409.273V411.795H989.328V406.25H1010.06C1010.04 404.674 1009.7 403.273 1009.03 402.045C1008.37 400.803 1007.43 399.826 1006.24 399.114C1005.06 398.402 1003.68 398.045 1002.1 398.045C1000.42 398.045 998.942 398.455 997.669 399.273C996.397 400.076 995.404 401.136 994.692 402.455C993.995 403.758 993.639 405.189 993.624 406.75V411.591C993.624 413.621 993.995 415.364 994.737 416.818C995.48 418.258 996.518 419.364 997.851 420.136C999.184 420.894 1000.75 421.273 1002.53 421.273C1003.73 421.273 1004.81 421.106 1005.78 420.773C1006.75 420.424 1007.59 419.917 1008.31 419.25C1009.02 418.583 1009.56 417.758 1009.92 416.773L1017.6 417.636C1017.12 419.667 1016.19 421.439 1014.83 422.955C1013.48 424.455 1011.75 425.621 1009.65 426.455C1007.54 427.273 1005.13 427.682 1002.42 427.682ZM1029.28 392.091L1036.33 404.977L1043.48 392.091H1052.19L1041.67 409.545L1052.37 427H1043.71L1036.33 414.432L1029.01 427H1020.28L1030.92 409.545L1020.55 392.091H1029.28ZM1056.95 440.091V392.091H1065.04V397.864H1065.52C1065.94 397.015 1066.54 396.114 1067.32 395.159C1068.09 394.189 1069.13 393.364 1070.45 392.682C1071.77 391.985 1073.45 391.636 1075.5 391.636C1078.19 391.636 1080.63 392.326 1082.79 393.705C1084.97 395.068 1086.7 397.091 1087.97 399.773C1089.26 402.439 1089.91 405.712 1089.91 409.591C1089.91 413.424 1089.28 416.682 1088.02 419.364C1086.76 422.045 1085.05 424.091 1082.88 425.5C1080.72 426.909 1078.26 427.614 1075.52 427.614C1073.52 427.614 1071.86 427.28 1070.54 426.614C1069.22 425.947 1068.16 425.144 1067.36 424.205C1066.57 423.25 1065.96 422.348 1065.52 421.5H1065.18V440.091H1056.95ZM1065.02 409.545C1065.02 411.803 1065.34 413.78 1065.97 415.477C1066.63 417.174 1067.56 418.5 1068.77 419.455C1070 420.394 1071.48 420.864 1073.22 420.864C1075.04 420.864 1076.57 420.379 1077.79 419.409C1079.02 418.424 1079.94 417.083 1080.57 415.386C1081.2 413.674 1081.52 411.727 1081.52 409.545C1081.52 407.379 1081.21 405.455 1080.59 403.773C1079.97 402.091 1079.04 400.773 1077.82 399.818C1076.59 398.864 1075.06 398.386 1073.22 398.386C1071.47 398.386 1069.97 398.848 1068.75 399.773C1067.52 400.697 1066.59 401.992 1065.95 403.659C1065.33 405.326 1065.02 407.288 1065.02 409.545ZM1110.81 427.682C1107.31 427.682 1104.28 426.955 1101.74 425.5C1099.21 424.03 1097.26 421.955 1095.9 419.273C1094.53 416.576 1093.85 413.402 1093.85 409.75C1093.85 406.159 1094.53 403.008 1095.9 400.295C1097.28 397.568 1099.2 395.447 1101.67 393.932C1104.14 392.402 1107.04 391.636 1110.38 391.636C1112.53 391.636 1114.56 391.985 1116.47 392.682C1118.39 393.364 1120.09 394.424 1121.56 395.864C1123.04 397.303 1124.21 399.136 1125.06 401.364C1125.91 403.576 1126.33 406.212 1126.33 409.273V411.795H1097.72V406.25H1118.44C1118.43 404.674 1118.09 403.273 1117.42 402.045C1116.75 400.803 1115.82 399.826 1114.62 399.114C1113.44 398.402 1112.06 398.045 1110.49 398.045C1108.81 398.045 1107.33 398.455 1106.06 399.273C1104.78 400.076 1103.79 401.136 1103.08 402.455C1102.38 403.758 1102.03 405.189 1102.01 406.75V411.591C1102.01 413.621 1102.38 415.364 1103.12 416.818C1103.87 418.258 1104.91 419.364 1106.24 420.136C1107.57 420.894 1109.13 421.273 1110.92 421.273C1112.12 421.273 1113.2 421.106 1114.17 420.773C1115.14 420.424 1115.98 419.917 1116.69 419.25C1117.41 418.583 1117.94 417.758 1118.31 416.773L1125.99 417.636C1125.5 419.667 1124.58 421.439 1123.22 422.955C1121.87 424.455 1120.14 425.621 1118.03 426.455C1115.93 427.273 1113.52 427.682 1110.81 427.682ZM1131.69 427V392.091H1139.67V397.909H1140.03C1140.67 395.894 1141.76 394.341 1143.3 393.25C1144.86 392.144 1146.64 391.591 1148.64 391.591C1149.1 391.591 1149.61 391.614 1150.17 391.659C1150.74 391.689 1151.22 391.742 1151.6 391.818V399.386C1151.25 399.265 1150.7 399.159 1149.94 399.068C1149.2 398.962 1148.48 398.909 1147.78 398.909C1146.28 398.909 1144.93 399.235 1143.74 399.886C1142.55 400.523 1141.62 401.409 1140.94 402.545C1140.26 403.682 1139.92 404.992 1139.92 406.477V427H1131.69ZM1155.46 427V392.091H1163.69V427H1155.46ZM1159.6 387.136C1158.3 387.136 1157.18 386.705 1156.24 385.841C1155.3 384.962 1154.83 383.909 1154.83 382.682C1154.83 381.439 1155.3 380.386 1156.24 379.523C1157.18 378.644 1158.3 378.205 1159.6 378.205C1160.92 378.205 1162.04 378.644 1162.96 379.523C1163.9 380.386 1164.37 381.439 1164.37 382.682C1164.37 383.909 1163.9 384.962 1162.96 385.841C1162.04 386.705 1160.92 387.136 1159.6 387.136ZM1186.01 427.682C1182.51 427.682 1179.48 426.955 1176.94 425.5C1174.41 424.03 1172.46 421.955 1171.1 419.273C1169.73 416.576 1169.05 413.402 1169.05 409.75C1169.05 406.159 1169.73 403.008 1171.1 400.295C1172.48 397.568 1174.4 395.447 1176.87 393.932C1179.34 392.402 1182.24 391.636 1185.58 391.636C1187.73 391.636 1189.76 391.985 1191.67 392.682C1193.59 393.364 1195.29 394.424 1196.76 395.864C1198.24 397.303 1199.41 399.136 1200.26 401.364C1201.11 403.576 1201.53 406.212 1201.53 409.273V411.795H1172.92V406.25H1193.64C1193.63 404.674 1193.29 403.273 1192.62 402.045C1191.95 400.803 1191.02 399.826 1189.83 399.114C1188.64 398.402 1187.26 398.045 1185.69 398.045C1184.01 398.045 1182.53 398.455 1181.26 399.273C1179.98 400.076 1178.99 401.136 1178.28 402.455C1177.58 403.758 1177.23 405.189 1177.21 406.75V411.591C1177.21 413.621 1177.58 415.364 1178.33 416.818C1179.07 418.258 1180.11 419.364 1181.44 420.136C1182.77 420.894 1184.33 421.273 1186.12 421.273C1187.32 421.273 1188.4 421.106 1189.37 420.773C1190.34 420.424 1191.18 419.917 1191.89 419.25C1192.61 418.583 1193.14 417.758 1193.51 416.773L1201.19 417.636C1200.7 419.667 1199.78 421.439 1198.42 422.955C1197.07 424.455 1195.34 425.621 1193.23 426.455C1191.13 427.273 1188.72 427.682 1186.01 427.682ZM1215.12 406.545V427H1206.89V392.091H1214.75V398.023H1215.16C1215.97 396.068 1217.25 394.515 1219 393.364C1220.78 392.212 1222.97 391.636 1225.57 391.636C1227.98 391.636 1230.08 392.152 1231.87 393.182C1233.67 394.212 1235.06 395.705 1236.05 397.659C1237.05 399.614 1237.54 401.985 1237.53 404.773V427H1229.3V406.045C1229.3 403.712 1228.69 401.886 1227.48 400.568C1226.28 399.25 1224.62 398.591 1222.5 398.591C1221.06 398.591 1219.78 398.909 1218.66 399.545C1217.56 400.167 1216.69 401.068 1216.05 402.25C1215.43 403.432 1215.12 404.864 1215.12 406.545ZM1259.52 427.682C1256.03 427.682 1253.04 426.917 1250.54 425.386C1248.05 423.856 1246.14 421.742 1244.79 419.045C1243.46 416.333 1242.79 413.212 1242.79 409.682C1242.79 406.136 1243.47 403.008 1244.84 400.295C1246.2 397.568 1248.12 395.447 1250.61 393.932C1253.11 392.402 1256.06 391.636 1259.47 391.636C1262.3 391.636 1264.81 392.159 1266.99 393.205C1269.19 394.235 1270.94 395.697 1272.24 397.591C1273.55 399.47 1274.29 401.667 1274.47 404.182H1266.61C1266.29 402.5 1265.53 401.098 1264.34 399.977C1263.15 398.841 1261.57 398.273 1259.59 398.273C1257.9 398.273 1256.43 398.727 1255.15 399.636C1253.88 400.53 1252.89 401.818 1252.18 403.5C1251.48 405.182 1251.13 407.197 1251.13 409.545C1251.13 411.924 1251.48 413.97 1252.18 415.682C1252.87 417.379 1253.85 418.689 1255.11 419.614C1256.38 420.523 1257.87 420.977 1259.59 420.977C1260.8 420.977 1261.88 420.75 1262.84 420.295C1263.8 419.826 1264.62 419.152 1265.27 418.273C1265.92 417.394 1266.37 416.326 1266.61 415.068H1274.47C1274.27 417.538 1273.55 419.727 1272.29 421.636C1271.03 423.53 1269.32 425.015 1267.15 426.091C1264.99 427.152 1262.44 427.682 1259.52 427.682ZM1295.08 427.682C1291.58 427.682 1288.56 426.955 1286.01 425.5C1283.48 424.03 1281.54 421.955 1280.17 419.273C1278.81 416.576 1278.13 413.402 1278.13 409.75C1278.13 406.159 1278.81 403.008 1280.17 400.295C1281.55 397.568 1283.48 395.447 1285.95 393.932C1288.42 392.402 1291.32 391.636 1294.65 391.636C1296.8 391.636 1298.83 391.985 1300.74 392.682C1302.67 393.364 1304.36 394.424 1305.83 395.864C1307.32 397.303 1308.48 399.136 1309.33 401.364C1310.18 403.576 1310.6 406.212 1310.6 409.273V411.795H1281.99V406.25H1302.72C1302.7 404.674 1302.36 403.273 1301.7 402.045C1301.03 400.803 1300.1 399.826 1298.9 399.114C1297.72 398.402 1296.34 398.045 1294.76 398.045C1293.08 398.045 1291.6 398.455 1290.33 399.273C1289.06 400.076 1288.07 401.136 1287.35 402.455C1286.66 403.758 1286.3 405.189 1286.29 406.75V411.591C1286.29 413.621 1286.66 415.364 1287.4 416.818C1288.14 418.258 1289.18 419.364 1290.51 420.136C1291.85 420.894 1293.41 421.273 1295.2 421.273C1296.39 421.273 1297.48 421.106 1298.45 420.773C1299.42 420.424 1300.26 419.917 1300.97 419.25C1301.68 418.583 1302.22 417.758 1302.58 416.773L1310.26 417.636C1309.78 419.667 1308.85 421.439 1307.49 422.955C1306.14 424.455 1304.42 425.621 1302.31 426.455C1300.2 427.273 1297.79 427.682 1295.08 427.682ZM1321.03 427.5C1319.65 427.5 1318.47 427.015 1317.49 426.045C1316.5 425.076 1316.02 423.894 1316.03 422.5C1316.02 421.136 1316.5 419.97 1317.49 419C1318.47 418.03 1319.65 417.545 1321.03 417.545C1322.37 417.545 1323.53 418.03 1324.51 419C1325.51 419.97 1326.02 421.136 1326.03 422.5C1326.02 423.424 1325.78 424.265 1325.31 425.023C1324.85 425.78 1324.25 426.386 1323.49 426.841C1322.75 427.28 1321.93 427.5 1321.03 427.5Z" fill="#F2F4F5"/>
</g>
<defs>
<clipPath id="clip0_1_8">
<rect width="1500" height="500" fill="white"/>
</clipPath>
</defs>
</svg>
