<svg width="1280" height="640" viewBox="0 0 1280 640" fill="none" xmlns="http://www.w3.org/2000/svg">
<g clip-path="url(#clip0_1_8)">
<rect width="1280" height="640" fill="#334652"/>
<path opacity="0.6" fill-rule="evenodd" clip-rule="evenodd" d="M1073.79 379.341C1047.7 332.537 1010.35 283.888 957.844 291.864C898.789 300.836 856.78 353.531 850.719 413.23C844.708 472.445 876.798 529.785 931.223 554.077C984.285 577.76 1046.95 561.808 1083.43 517.098C1115.37 477.956 1098.64 423.908 1073.79 379.341Z" fill="#142A38"/>
<path fill-rule="evenodd" clip-rule="evenodd" d="M1012.91 239.554C1059.96 154.915 1127.36 66.9758 1222.39 81.6057C1329.27 98.0607 1405.47 193.611 1416.65 301.712C1427.74 408.937 1369.88 512.629 1271.5 556.41C1175.58 599.094 1062.13 569.989 995.969 488.914C938.045 417.937 968.111 320.148 1012.91 239.554Z" fill="#556570"/>
<g opacity="0.4">
<circle r="8" transform="matrix(-1 0 0 1 72 129.76)" fill="#C9D1D6"/>
<circle r="8" transform="matrix(-1 0 0 1 72 96)" fill="#C9D1D6"/>
</g>
<g style="mix-blend-mode:multiply" opacity="0.4">
<path fill-rule="evenodd" clip-rule="evenodd" d="M-25.4825 300.143C27.7763 365.204 77.1896 447.761 34.9857 519.867C-12.483 600.968 -113.973 632.004 -204.793 606.498C-294.878 581.198 -360.058 501.319 -363.921 407.836C-367.688 316.694 -307.909 234.331 -221.312 206.776C-145.501 182.652 -76.1962 238.192 -25.4825 300.143Z" fill="#142A38"/>
</g>
<path opacity="0.6" fill-rule="evenodd" clip-rule="evenodd" d="M23.1334 -133.525C63.2245 -105.855 91.9244 -67.3397 114.776 -24.3318C139.265 21.7556 165.925 70.2103 158.839 121.875C151.509 175.312 119.724 224.412 76.2789 256.353C35.0331 286.678 -18.6239 287.464 -69.7906 289.969C-118.079 292.332 -166.884 292.39 -209.95 270.363C-254.568 247.543 -293.296 211.903 -312.722 165.72C-331.916 120.087 -325.396 69.2589 -314.869 20.9238C-304.396 -27.1623 -286.55 -73.1749 -252.879 -109.05C-216.959 -147.322 -172.51 -181.859 -120.191 -186.499C-68.2097 -191.108 -19.8425 -163.186 23.1334 -133.525Z" stroke="#C9D1D6"/>
<path opacity="0.4" d="M104.591 333H113.023V313.227H134.591V333H143.045V286.455H134.591V306.159H113.023V286.455H104.591V333ZM150.252 333H158.48V298.091H150.252V333ZM154.389 293.136C157.002 293.136 159.139 291.136 159.139 288.682C159.139 286.205 157.002 284.205 154.389 284.205C151.752 284.205 149.616 286.205 149.616 288.682C149.616 291.136 151.752 293.136 154.389 293.136ZM165.34 333H173.567V312.477C173.567 308.045 176.908 304.909 181.431 304.909C182.817 304.909 184.544 305.159 185.249 305.386V297.818C184.499 297.682 183.203 297.591 182.294 297.591C178.294 297.591 174.953 299.864 173.681 303.909H173.317V298.091H165.34V333ZM203.132 333.682C211.268 333.682 216.859 329.705 218.314 323.636L210.632 322.773C209.518 325.727 206.791 327.273 203.245 327.273C197.927 327.273 194.405 323.773 194.336 317.795H218.655V315.273C218.655 303.023 211.291 297.636 202.7 297.636C192.7 297.636 186.177 304.977 186.177 315.75C186.177 326.705 192.609 333.682 203.132 333.682ZM194.359 312.25C194.609 307.795 197.905 304.045 202.814 304.045C207.541 304.045 210.723 307.5 210.768 312.25H194.359ZM224.015 346.091H232.242V327.5H232.583C233.878 330.045 236.583 333.614 242.583 333.614C250.81 333.614 256.969 327.091 256.969 315.591C256.969 303.955 250.628 297.636 242.56 297.636C236.401 297.636 233.833 301.341 232.583 303.864H232.106V298.091H224.015V346.091ZM232.083 315.545C232.083 308.773 234.992 304.386 240.287 304.386C245.765 304.386 248.583 309.045 248.583 315.545C248.583 322.091 245.719 326.864 240.287 326.864C235.037 326.864 232.083 322.318 232.083 315.545ZM262.415 333H270.642V312.477C270.642 308.045 273.983 304.909 278.506 304.909C279.892 304.909 281.619 305.159 282.324 305.386V297.818C281.574 297.682 280.278 297.591 279.369 297.591C275.369 297.591 272.028 299.864 270.756 303.909H270.392V298.091H262.415V333ZM299.98 333.682C310.207 333.682 316.707 326.477 316.707 315.682C316.707 304.864 310.207 297.636 299.98 297.636C289.752 297.636 283.252 304.864 283.252 315.682C283.252 326.477 289.752 333.682 299.98 333.682ZM300.025 327.091C294.366 327.091 291.593 322.045 291.593 315.659C291.593 309.273 294.366 304.159 300.025 304.159C305.593 304.159 308.366 309.273 308.366 315.659C308.366 322.045 305.593 327.091 300.025 327.091ZM337.317 333.682C347.544 333.682 354.044 326.477 354.044 315.682C354.044 304.864 347.544 297.636 337.317 297.636C327.09 297.636 320.59 304.864 320.59 315.682C320.59 326.477 327.09 333.682 337.317 333.682ZM337.363 327.091C331.703 327.091 328.931 322.045 328.931 315.659C328.931 309.273 331.703 304.159 337.363 304.159C342.931 304.159 345.703 309.273 345.703 315.659C345.703 322.045 342.931 327.091 337.363 327.091ZM377.109 298.091H369.859V295.341C369.859 292.614 370.995 291.091 374.064 291.091C375.359 291.091 376.45 291.386 377.132 291.591L378.791 285.227C377.723 284.864 375.382 284.273 372.541 284.273C366.473 284.273 361.632 287.75 361.632 294.795V298.091H356.473V304.455H361.632V333H369.859V304.455H377.109V298.091Z" fill="#F2F4F5"/>
<path d="M104.591 405V358.455H113.023V397.932H133.523V405H104.591ZM154.332 405.682C150.832 405.682 147.809 404.955 145.264 403.5C142.733 402.03 140.786 399.955 139.423 397.273C138.059 394.576 137.377 391.402 137.377 387.75C137.377 384.159 138.059 381.008 139.423 378.295C140.802 375.568 142.726 373.447 145.195 371.932C147.665 370.402 150.567 369.636 153.9 369.636C156.052 369.636 158.082 369.985 159.991 370.682C161.915 371.364 163.612 372.424 165.082 373.864C166.567 375.303 167.733 377.136 168.582 379.364C169.43 381.576 169.855 384.212 169.855 387.273V389.795H141.241V384.25H161.968C161.953 382.674 161.612 381.273 160.945 380.045C160.279 378.803 159.347 377.826 158.15 377.114C156.968 376.402 155.589 376.045 154.014 376.045C152.332 376.045 150.855 376.455 149.582 377.273C148.309 378.076 147.317 379.136 146.605 380.455C145.908 381.758 145.552 383.189 145.536 384.75V389.591C145.536 391.621 145.908 393.364 146.65 394.818C147.392 396.258 148.43 397.364 149.764 398.136C151.097 398.894 152.658 399.273 154.445 399.273C155.642 399.273 156.726 399.106 157.695 398.773C158.665 398.424 159.506 397.917 160.218 397.25C160.93 396.583 161.468 395.758 161.832 394.773L169.514 395.636C169.029 397.667 168.105 399.439 166.741 400.955C165.392 402.455 163.665 403.621 161.559 404.455C159.453 405.273 157.044 405.682 154.332 405.682ZM202.806 379.318L195.306 380.136C195.094 379.379 194.722 378.667 194.192 378C193.677 377.333 192.98 376.795 192.101 376.386C191.222 375.977 190.147 375.773 188.874 375.773C187.162 375.773 185.722 376.144 184.556 376.886C183.404 377.629 182.836 378.591 182.851 379.773C182.836 380.788 183.207 381.614 183.965 382.25C184.738 382.886 186.01 383.409 187.783 383.818L193.738 385.091C197.041 385.803 199.495 386.932 201.101 388.477C202.722 390.023 203.541 392.045 203.556 394.545C203.541 396.742 202.897 398.682 201.624 400.364C200.366 402.03 198.616 403.333 196.374 404.273C194.131 405.212 191.556 405.682 188.647 405.682C184.374 405.682 180.934 404.788 178.328 403C175.722 401.197 174.169 398.689 173.669 395.477L181.692 394.705C182.056 396.28 182.828 397.47 184.01 398.273C185.192 399.076 186.73 399.477 188.624 399.477C190.578 399.477 192.147 399.076 193.328 398.273C194.525 397.47 195.124 396.477 195.124 395.295C195.124 394.295 194.738 393.47 193.965 392.818C193.207 392.167 192.025 391.667 190.419 391.318L184.465 390.068C181.116 389.371 178.639 388.197 177.033 386.545C175.427 384.879 174.631 382.773 174.647 380.227C174.631 378.076 175.215 376.212 176.397 374.636C177.594 373.045 179.253 371.818 181.374 370.955C183.51 370.076 185.972 369.636 188.76 369.636C192.851 369.636 196.071 370.508 198.419 372.25C200.783 373.992 202.245 376.348 202.806 379.318ZM236.331 379.318L228.831 380.136C228.619 379.379 228.247 378.667 227.717 378C227.202 377.333 226.505 376.795 225.626 376.386C224.747 375.977 223.672 375.773 222.399 375.773C220.687 375.773 219.247 376.144 218.081 376.886C216.929 377.629 216.361 378.591 216.376 379.773C216.361 380.788 216.732 381.614 217.49 382.25C218.262 382.886 219.535 383.409 221.308 383.818L227.262 385.091C230.566 385.803 233.02 386.932 234.626 388.477C236.247 390.023 237.066 392.045 237.081 394.545C237.066 396.742 236.422 398.682 235.149 400.364C233.891 402.03 232.141 403.333 229.899 404.273C227.656 405.212 225.081 405.682 222.172 405.682C217.899 405.682 214.459 404.788 211.853 403C209.247 401.197 207.694 398.689 207.194 395.477L215.217 394.705C215.581 396.28 216.353 397.47 217.535 398.273C218.717 399.076 220.255 399.477 222.149 399.477C224.103 399.477 225.672 399.076 226.853 398.273C228.05 397.47 228.649 396.477 228.649 395.295C228.649 394.295 228.262 393.47 227.49 392.818C226.732 392.167 225.55 391.667 223.944 391.318L217.99 390.068C214.641 389.371 212.164 388.197 210.558 386.545C208.952 384.879 208.156 382.773 208.172 380.227C208.156 378.076 208.74 376.212 209.922 374.636C211.119 373.045 212.778 371.818 214.899 370.955C217.035 370.076 219.497 369.636 222.285 369.636C226.376 369.636 229.596 370.508 231.944 372.25C234.308 373.992 235.77 376.348 236.331 379.318ZM256.903 405V358.455H265.131V375.864H265.472C265.896 375.015 266.494 374.114 267.267 373.159C268.04 372.189 269.085 371.364 270.403 370.682C271.722 369.985 273.403 369.636 275.449 369.636C278.146 369.636 280.578 370.326 282.744 371.705C284.926 373.068 286.653 375.091 287.926 377.773C289.214 380.439 289.858 383.712 289.858 387.591C289.858 391.424 289.229 394.682 287.972 397.364C286.714 400.045 285.002 402.091 282.835 403.5C280.669 404.909 278.214 405.614 275.472 405.614C273.472 405.614 271.813 405.28 270.494 404.614C269.176 403.947 268.116 403.144 267.312 402.205C266.525 401.25 265.911 400.348 265.472 399.5H264.994V405H256.903ZM264.972 387.545C264.972 389.803 265.29 391.78 265.926 393.477C266.578 395.174 267.509 396.5 268.722 397.455C269.949 398.394 271.434 398.864 273.176 398.864C274.994 398.864 276.517 398.379 277.744 397.409C278.972 396.424 279.896 395.083 280.517 393.386C281.153 391.674 281.472 389.727 281.472 387.545C281.472 385.379 281.161 383.455 280.54 381.773C279.919 380.091 278.994 378.773 277.767 377.818C276.54 376.864 275.009 376.386 273.176 376.386C271.419 376.386 269.926 376.848 268.699 377.773C267.472 378.697 266.54 379.992 265.903 381.659C265.282 383.326 264.972 385.288 264.972 387.545ZM295.252 405V370.091H303.48V405H295.252ZM299.389 365.136C298.086 365.136 296.964 364.705 296.025 363.841C295.086 362.962 294.616 361.909 294.616 360.682C294.616 359.439 295.086 358.386 296.025 357.523C296.964 356.644 298.086 356.205 299.389 356.205C300.707 356.205 301.828 356.644 302.752 357.523C303.692 358.386 304.161 359.439 304.161 360.682C304.161 361.909 303.692 362.962 302.752 363.841C301.828 364.705 300.707 365.136 299.389 365.136ZM320.385 405.705C318.173 405.705 316.181 405.311 314.408 404.523C312.65 403.72 311.256 402.538 310.226 400.977C309.211 399.417 308.703 397.492 308.703 395.205C308.703 393.235 309.067 391.606 309.794 390.318C310.522 389.03 311.514 388 312.772 387.227C314.029 386.455 315.446 385.871 317.022 385.477C318.613 385.068 320.256 384.773 321.953 384.591C323.999 384.379 325.658 384.189 326.931 384.023C328.203 383.841 329.128 383.568 329.703 383.205C330.294 382.826 330.59 382.242 330.59 381.455V381.318C330.59 379.606 330.082 378.28 329.067 377.341C328.052 376.402 326.59 375.932 324.681 375.932C322.666 375.932 321.067 376.371 319.885 377.25C318.719 378.129 317.931 379.167 317.522 380.364L309.84 379.273C310.446 377.152 311.446 375.379 312.84 373.955C314.234 372.515 315.938 371.439 317.953 370.727C319.969 370 322.196 369.636 324.635 369.636C326.317 369.636 327.991 369.833 329.658 370.227C331.325 370.621 332.847 371.273 334.226 372.182C335.605 373.076 336.711 374.295 337.544 375.841C338.393 377.386 338.817 379.318 338.817 381.636V405H330.908V400.205H330.635C330.135 401.174 329.431 402.083 328.522 402.932C327.628 403.765 326.499 404.439 325.135 404.955C323.787 405.455 322.203 405.705 320.385 405.705ZM322.522 399.659C324.173 399.659 325.605 399.333 326.817 398.682C328.029 398.015 328.961 397.136 329.613 396.045C330.279 394.955 330.613 393.765 330.613 392.477V388.364C330.355 388.576 329.916 388.773 329.294 388.955C328.688 389.136 328.006 389.295 327.249 389.432C326.491 389.568 325.741 389.689 324.999 389.795C324.256 389.902 323.613 389.992 323.067 390.068C321.84 390.235 320.741 390.508 319.772 390.886C318.802 391.265 318.037 391.795 317.476 392.477C316.916 393.144 316.635 394.008 316.635 395.068C316.635 396.583 317.188 397.727 318.294 398.5C319.4 399.273 320.809 399.659 322.522 399.659ZM373.081 379.318L365.581 380.136C365.369 379.379 364.997 378.667 364.467 378C363.952 377.333 363.255 376.795 362.376 376.386C361.497 375.977 360.422 375.773 359.149 375.773C357.437 375.773 355.997 376.144 354.831 376.886C353.679 377.629 353.111 378.591 353.126 379.773C353.111 380.788 353.482 381.614 354.24 382.25C355.012 382.886 356.285 383.409 358.058 383.818L364.012 385.091C367.316 385.803 369.77 386.932 371.376 388.477C372.997 390.023 373.816 392.045 373.831 394.545C373.816 396.742 373.172 398.682 371.899 400.364C370.641 402.03 368.891 403.333 366.649 404.273C364.406 405.212 361.831 405.682 358.922 405.682C354.649 405.682 351.209 404.788 348.603 403C345.997 401.197 344.444 398.689 343.944 395.477L351.967 394.705C352.331 396.28 353.103 397.47 354.285 398.273C355.467 399.076 357.005 399.477 358.899 399.477C360.853 399.477 362.422 399.076 363.603 398.273C364.8 397.47 365.399 396.477 365.399 395.295C365.399 394.295 365.012 393.47 364.24 392.818C363.482 392.167 362.3 391.667 360.694 391.318L354.74 390.068C351.391 389.371 348.914 388.197 347.308 386.545C345.702 384.879 344.906 382.773 344.922 380.227C344.906 378.076 345.49 376.212 346.672 374.636C347.869 373.045 349.528 371.818 351.649 370.955C353.785 370.076 356.247 369.636 359.035 369.636C363.126 369.636 366.346 370.508 368.694 372.25C371.058 373.992 372.52 376.348 373.081 379.318ZM384.083 405.5C382.704 405.5 381.522 405.015 380.538 404.045C379.553 403.076 379.068 401.894 379.083 400.5C379.068 399.136 379.553 397.97 380.538 397C381.522 396.03 382.704 395.545 384.083 395.545C385.416 395.545 386.575 396.03 387.56 397C388.56 397.97 389.068 399.136 389.083 400.5C389.068 401.424 388.825 402.265 388.356 403.023C387.901 403.78 387.295 404.386 386.538 404.841C385.795 405.28 384.977 405.5 384.083 405.5ZM409.178 405V358.455H426.997C430.36 358.455 433.156 358.985 435.383 360.045C437.625 361.091 439.3 362.523 440.406 364.341C441.527 366.159 442.087 368.22 442.087 370.523C442.087 372.417 441.724 374.038 440.997 375.386C440.269 376.72 439.292 377.803 438.065 378.636C436.837 379.47 435.466 380.068 433.951 380.432V380.886C435.603 380.977 437.186 381.485 438.701 382.409C440.231 383.318 441.481 384.606 442.451 386.273C443.421 387.939 443.906 389.955 443.906 392.318C443.906 394.727 443.322 396.894 442.156 398.818C440.989 400.727 439.231 402.235 436.883 403.341C434.534 404.447 431.58 405 428.019 405H409.178ZM417.61 397.955H426.678C429.739 397.955 431.944 397.371 433.292 396.205C434.656 395.023 435.337 393.508 435.337 391.659C435.337 390.28 434.997 389.038 434.315 387.932C433.633 386.811 432.663 385.932 431.406 385.295C430.148 384.644 428.648 384.318 426.906 384.318H417.61V397.955ZM417.61 378.25H425.951C427.406 378.25 428.716 377.985 429.883 377.455C431.05 376.909 431.966 376.144 432.633 375.159C433.315 374.159 433.656 372.977 433.656 371.614C433.656 369.811 433.019 368.326 431.747 367.159C430.489 365.992 428.618 365.409 426.133 365.409H417.61V378.25ZM464.732 405.682C461.232 405.682 458.209 404.955 455.664 403.5C453.133 402.03 451.186 399.955 449.823 397.273C448.459 394.576 447.777 391.402 447.777 387.75C447.777 384.159 448.459 381.008 449.823 378.295C451.202 375.568 453.126 373.447 455.595 371.932C458.065 370.402 460.967 369.636 464.3 369.636C466.452 369.636 468.482 369.985 470.391 370.682C472.315 371.364 474.012 372.424 475.482 373.864C476.967 375.303 478.133 377.136 478.982 379.364C479.83 381.576 480.255 384.212 480.255 387.273V389.795H451.641V384.25H472.368C472.353 382.674 472.012 381.273 471.345 380.045C470.679 378.803 469.747 377.826 468.55 377.114C467.368 376.402 465.989 376.045 464.414 376.045C462.732 376.045 461.255 376.455 459.982 377.273C458.709 378.076 457.717 379.136 457.005 380.455C456.308 381.758 455.952 383.189 455.936 384.75V389.591C455.936 391.621 456.308 393.364 457.05 394.818C457.792 396.258 458.83 397.364 460.164 398.136C461.497 398.894 463.058 399.273 464.845 399.273C466.042 399.273 467.126 399.106 468.095 398.773C469.065 398.424 469.906 397.917 470.618 397.25C471.33 396.583 471.868 395.758 472.232 394.773L479.914 395.636C479.429 397.667 478.505 399.439 477.141 400.955C475.792 402.455 474.065 403.621 471.959 404.455C469.853 405.273 467.444 405.682 464.732 405.682ZM503.047 370.091V376.455H482.978V370.091H503.047ZM487.933 361.727H496.16V394.5C496.16 395.606 496.327 396.455 496.66 397.045C497.009 397.621 497.463 398.015 498.024 398.227C498.584 398.439 499.206 398.545 499.888 398.545C500.403 398.545 500.872 398.508 501.297 398.432C501.736 398.356 502.069 398.288 502.297 398.227L503.683 404.659C503.244 404.811 502.615 404.977 501.797 405.159C500.994 405.341 500.009 405.447 498.842 405.477C496.781 405.538 494.925 405.227 493.274 404.545C491.622 403.848 490.312 402.773 489.342 401.318C488.388 399.864 487.918 398.045 487.933 395.864V361.727ZM525.759 370.091V376.455H505.691V370.091H525.759ZM510.645 361.727H518.873V394.5C518.873 395.606 519.039 396.455 519.373 397.045C519.721 397.621 520.176 398.015 520.736 398.227C521.297 398.439 521.918 398.545 522.6 398.545C523.115 398.545 523.585 398.508 524.009 398.432C524.448 398.356 524.782 398.288 525.009 398.227L526.395 404.659C525.956 404.811 525.327 404.977 524.509 405.159C523.706 405.341 522.721 405.447 521.555 405.477C519.494 405.538 517.638 405.227 515.986 404.545C514.335 403.848 513.024 402.773 512.055 401.318C511.1 399.864 510.63 398.045 510.645 395.864V361.727ZM546.119 405.682C542.619 405.682 539.597 404.955 537.051 403.5C534.521 402.03 532.574 399.955 531.21 397.273C529.847 394.576 529.165 391.402 529.165 387.75C529.165 384.159 529.847 381.008 531.21 378.295C532.589 375.568 534.513 373.447 536.983 371.932C539.453 370.402 542.354 369.636 545.688 369.636C547.839 369.636 549.869 369.985 551.778 370.682C553.703 371.364 555.4 372.424 556.869 373.864C558.354 375.303 559.521 377.136 560.369 379.364C561.218 381.576 561.642 384.212 561.642 387.273V389.795H533.028V384.25H553.756C553.741 382.674 553.4 381.273 552.733 380.045C552.066 378.803 551.134 377.826 549.938 377.114C548.756 376.402 547.377 376.045 545.801 376.045C544.119 376.045 542.642 376.455 541.369 377.273C540.097 378.076 539.104 379.136 538.392 380.455C537.695 381.758 537.339 383.189 537.324 384.75V389.591C537.324 391.621 537.695 393.364 538.438 394.818C539.18 396.258 540.218 397.364 541.551 398.136C542.884 398.894 544.445 399.273 546.233 399.273C547.43 399.273 548.513 399.106 549.483 398.773C550.453 398.424 551.294 397.917 552.006 397.25C552.718 396.583 553.256 395.758 553.619 394.773L561.301 395.636C560.816 397.667 559.892 399.439 558.528 400.955C557.18 402.455 555.453 403.621 553.347 404.455C551.241 405.273 548.831 405.682 546.119 405.682ZM567.002 405V370.091H574.98V375.909H575.343C575.98 373.894 577.07 372.341 578.616 371.25C580.177 370.144 581.957 369.591 583.957 369.591C584.411 369.591 584.919 369.614 585.48 369.659C586.055 369.689 586.533 369.742 586.911 369.818V377.386C586.563 377.265 586.01 377.159 585.252 377.068C584.51 376.962 583.79 376.909 583.093 376.909C581.593 376.909 580.245 377.235 579.048 377.886C577.866 378.523 576.934 379.409 576.252 380.545C575.57 381.682 575.23 382.992 575.23 384.477V405H567.002ZM613.28 384.545V405H605.052V358.455H613.098V376.023H613.507C614.325 374.053 615.59 372.5 617.302 371.364C619.03 370.212 621.227 369.636 623.893 369.636C626.317 369.636 628.431 370.144 630.234 371.159C632.037 372.174 633.431 373.659 634.416 375.614C635.416 377.568 635.916 379.955 635.916 382.773V405H627.689V384.045C627.689 381.697 627.083 379.871 625.87 378.568C624.673 377.25 622.992 376.591 620.825 376.591C619.37 376.591 618.067 376.909 616.916 377.545C615.78 378.167 614.886 379.068 614.234 380.25C613.598 381.432 613.28 382.864 613.28 384.545ZM642.702 405V370.091H650.93V405H642.702ZM646.839 365.136C645.536 365.136 644.414 364.705 643.475 363.841C642.536 362.962 642.066 361.909 642.066 360.682C642.066 359.439 642.536 358.386 643.475 357.523C644.414 356.644 645.536 356.205 646.839 356.205C648.157 356.205 649.278 356.644 650.202 357.523C651.142 358.386 651.611 359.439 651.611 360.682C651.611 361.909 651.142 362.962 650.202 363.841C649.278 364.705 648.157 365.136 646.839 365.136ZM657.79 405V370.091H665.767V375.909H666.131C666.767 373.894 667.858 372.341 669.403 371.25C670.964 370.144 672.744 369.591 674.744 369.591C675.199 369.591 675.706 369.614 676.267 369.659C676.843 369.689 677.32 369.742 677.699 369.818V377.386C677.35 377.265 676.797 377.159 676.04 377.068C675.297 376.962 674.578 376.909 673.881 376.909C672.381 376.909 671.032 377.235 669.835 377.886C668.653 378.523 667.722 379.409 667.04 380.545C666.358 381.682 666.017 382.992 666.017 384.477V405H657.79ZM695.582 405.682C692.082 405.682 689.059 404.955 686.514 403.5C683.983 402.03 682.036 399.955 680.673 397.273C679.309 394.576 678.627 391.402 678.627 387.75C678.627 384.159 679.309 381.008 680.673 378.295C682.052 375.568 683.976 373.447 686.445 371.932C688.915 370.402 691.817 369.636 695.15 369.636C697.302 369.636 699.332 369.985 701.241 370.682C703.165 371.364 704.862 372.424 706.332 373.864C707.817 375.303 708.983 377.136 709.832 379.364C710.68 381.576 711.105 384.212 711.105 387.273V389.795H682.491V384.25H703.218C703.203 382.674 702.862 381.273 702.195 380.045C701.529 378.803 700.597 377.826 699.4 377.114C698.218 376.402 696.839 376.045 695.264 376.045C693.582 376.045 692.105 376.455 690.832 377.273C689.559 378.076 688.567 379.136 687.855 380.455C687.158 381.758 686.802 383.189 686.786 384.75V389.591C686.786 391.621 687.158 393.364 687.9 394.818C688.642 396.258 689.68 397.364 691.014 398.136C692.347 398.894 693.908 399.273 695.695 399.273C696.892 399.273 697.976 399.106 698.945 398.773C699.915 398.424 700.756 397.917 701.468 397.25C702.18 396.583 702.718 395.758 703.082 394.773L710.764 395.636C710.279 397.667 709.355 399.439 707.991 400.955C706.642 402.455 704.915 403.621 702.809 404.455C700.703 405.273 698.294 405.682 695.582 405.682ZM744.056 379.318L736.556 380.136C736.344 379.379 735.972 378.667 735.442 378C734.927 377.333 734.23 376.795 733.351 376.386C732.472 375.977 731.397 375.773 730.124 375.773C728.412 375.773 726.972 376.144 725.806 376.886C724.654 377.629 724.086 378.591 724.101 379.773C724.086 380.788 724.457 381.614 725.215 382.25C725.987 382.886 727.26 383.409 729.033 383.818L734.987 385.091C738.291 385.803 740.745 386.932 742.351 388.477C743.972 390.023 744.791 392.045 744.806 394.545C744.791 396.742 744.147 398.682 742.874 400.364C741.616 402.03 739.866 403.333 737.624 404.273C735.381 405.212 732.806 405.682 729.897 405.682C725.624 405.682 722.184 404.788 719.578 403C716.972 401.197 715.419 398.689 714.919 395.477L722.942 394.705C723.306 396.28 724.078 397.47 725.26 398.273C726.442 399.076 727.98 399.477 729.874 399.477C731.828 399.477 733.397 399.076 734.578 398.273C735.775 397.47 736.374 396.477 736.374 395.295C736.374 394.295 735.987 393.47 735.215 392.818C734.457 392.167 733.275 391.667 731.669 391.318L725.715 390.068C722.366 389.371 719.889 388.197 718.283 386.545C716.677 384.879 715.881 382.773 715.897 380.227C715.881 378.076 716.465 376.212 717.647 374.636C718.844 373.045 720.503 371.818 722.624 370.955C724.76 370.076 727.222 369.636 730.01 369.636C734.101 369.636 737.321 370.508 739.669 372.25C742.033 373.992 743.495 376.348 744.056 379.318ZM755.058 405.5C753.679 405.5 752.497 405.015 751.513 404.045C750.528 403.076 750.043 401.894 750.058 400.5C750.043 399.136 750.528 397.97 751.513 397C752.497 396.03 753.679 395.545 755.058 395.545C756.391 395.545 757.55 396.03 758.535 397C759.535 397.97 760.043 399.136 760.058 400.5C760.043 401.424 759.8 402.265 759.331 403.023C758.876 403.78 758.27 404.386 757.513 404.841C756.77 405.28 755.952 405.5 755.058 405.5ZM104.591 473V426.455H122.409C125.773 426.455 128.568 426.985 130.795 428.045C133.038 429.091 134.712 430.523 135.818 432.341C136.939 434.159 137.5 436.22 137.5 438.523C137.5 440.417 137.136 442.038 136.409 443.386C135.682 444.72 134.705 445.803 133.477 446.636C132.25 447.47 130.879 448.068 129.364 448.432V448.886C131.015 448.977 132.598 449.485 134.114 450.409C135.644 451.318 136.894 452.606 137.864 454.273C138.833 455.939 139.318 457.955 139.318 460.318C139.318 462.727 138.735 464.894 137.568 466.818C136.402 468.727 134.644 470.235 132.295 471.341C129.947 472.447 126.992 473 123.432 473H104.591ZM113.023 465.955H122.091C125.152 465.955 127.356 465.371 128.705 464.205C130.068 463.023 130.75 461.508 130.75 459.659C130.75 458.28 130.409 457.038 129.727 455.932C129.045 454.811 128.076 453.932 126.818 453.295C125.561 452.644 124.061 452.318 122.318 452.318H113.023V465.955ZM113.023 446.25H121.364C122.818 446.25 124.129 445.985 125.295 445.455C126.462 444.909 127.379 444.144 128.045 443.159C128.727 442.159 129.068 440.977 129.068 439.614C129.068 437.811 128.432 436.326 127.159 435.159C125.902 433.992 124.03 433.409 121.545 433.409H113.023V446.25ZM160.144 473.682C156.644 473.682 153.622 472.955 151.076 471.5C148.546 470.03 146.599 467.955 145.235 465.273C143.872 462.576 143.19 459.402 143.19 455.75C143.19 452.159 143.872 449.008 145.235 446.295C146.614 443.568 148.538 441.447 151.008 439.932C153.478 438.402 156.379 437.636 159.713 437.636C161.864 437.636 163.894 437.985 165.803 438.682C167.728 439.364 169.425 440.424 170.894 441.864C172.379 443.303 173.546 445.136 174.394 447.364C175.243 449.576 175.667 452.212 175.667 455.273V457.795H147.053V452.25H167.781C167.766 450.674 167.425 449.273 166.758 448.045C166.091 446.803 165.159 445.826 163.963 445.114C162.781 444.402 161.402 444.045 159.826 444.045C158.144 444.045 156.667 444.455 155.394 445.273C154.122 446.076 153.129 447.136 152.417 448.455C151.72 449.758 151.364 451.189 151.349 452.75V457.591C151.349 459.621 151.72 461.364 152.463 462.818C153.205 464.258 154.243 465.364 155.576 466.136C156.909 466.894 158.47 467.273 160.258 467.273C161.455 467.273 162.538 467.106 163.508 466.773C164.478 466.424 165.319 465.917 166.031 465.25C166.743 464.583 167.281 463.758 167.644 462.773L175.326 463.636C174.841 465.667 173.917 467.439 172.553 468.955C171.205 470.455 169.478 471.621 167.372 472.455C165.266 473.273 162.856 473.682 160.144 473.682ZM198.459 438.091V444.455H178.391V438.091H198.459ZM183.345 429.727H191.573V462.5C191.573 463.606 191.739 464.455 192.073 465.045C192.421 465.621 192.876 466.015 193.436 466.227C193.997 466.439 194.618 466.545 195.3 466.545C195.815 466.545 196.285 466.508 196.709 466.432C197.148 466.356 197.482 466.288 197.709 466.227L199.095 472.659C198.656 472.811 198.027 472.977 197.209 473.159C196.406 473.341 195.421 473.447 194.255 473.477C192.194 473.538 190.338 473.227 188.686 472.545C187.035 471.848 185.724 470.773 184.755 469.318C183.8 467.864 183.33 466.045 183.345 463.864V429.727ZM221.172 438.091V444.455H201.103V438.091H221.172ZM206.058 429.727H214.285V462.5C214.285 463.606 214.452 464.455 214.785 465.045C215.134 465.621 215.588 466.015 216.149 466.227C216.709 466.439 217.331 466.545 218.012 466.545C218.528 466.545 218.997 466.508 219.422 466.432C219.861 466.356 220.194 466.288 220.422 466.227L221.808 472.659C221.369 472.811 220.74 472.977 219.922 473.159C219.119 473.341 218.134 473.447 216.967 473.477C214.906 473.538 213.05 473.227 211.399 472.545C209.747 471.848 208.437 470.773 207.467 469.318C206.512 467.864 206.043 466.045 206.058 463.864V429.727ZM241.532 473.682C238.032 473.682 235.009 472.955 232.464 471.5C229.933 470.03 227.986 467.955 226.623 465.273C225.259 462.576 224.577 459.402 224.577 455.75C224.577 452.159 225.259 449.008 226.623 446.295C228.002 443.568 229.926 441.447 232.395 439.932C234.865 438.402 237.767 437.636 241.1 437.636C243.252 437.636 245.282 437.985 247.191 438.682C249.115 439.364 250.812 440.424 252.282 441.864C253.767 443.303 254.933 445.136 255.782 447.364C256.63 449.576 257.055 452.212 257.055 455.273V457.795H228.441V452.25H249.168C249.153 450.674 248.812 449.273 248.145 448.045C247.479 446.803 246.547 445.826 245.35 445.114C244.168 444.402 242.789 444.045 241.214 444.045C239.532 444.045 238.055 444.455 236.782 445.273C235.509 446.076 234.517 447.136 233.805 448.455C233.108 449.758 232.752 451.189 232.736 452.75V457.591C232.736 459.621 233.108 461.364 233.85 462.818C234.592 464.258 235.63 465.364 236.964 466.136C238.297 466.894 239.858 467.273 241.645 467.273C242.842 467.273 243.926 467.106 244.895 466.773C245.865 466.424 246.706 465.917 247.418 465.25C248.13 464.583 248.668 463.758 249.032 462.773L256.714 463.636C256.229 465.667 255.305 467.439 253.941 468.955C252.592 470.455 250.865 471.621 248.759 472.455C246.653 473.273 244.244 473.682 241.532 473.682ZM262.415 473V438.091H270.392V443.909H270.756C271.392 441.894 272.483 440.341 274.028 439.25C275.589 438.144 277.369 437.591 279.369 437.591C279.824 437.591 280.331 437.614 280.892 437.659C281.468 437.689 281.945 437.742 282.324 437.818V445.386C281.975 445.265 281.422 445.159 280.665 445.068C279.922 444.962 279.203 444.909 278.506 444.909C277.006 444.909 275.657 445.235 274.46 445.886C273.278 446.523 272.347 447.409 271.665 448.545C270.983 449.682 270.642 450.992 270.642 452.477V473H262.415ZM315.692 473.682C312.207 473.682 309.215 472.917 306.715 471.386C304.23 469.856 302.313 467.742 300.965 465.045C299.631 462.333 298.965 459.212 298.965 455.682C298.965 452.136 299.647 449.008 301.01 446.295C302.374 443.568 304.298 441.447 306.783 439.932C309.283 438.402 312.238 437.636 315.647 437.636C318.48 437.636 320.988 438.159 323.169 439.205C325.366 440.235 327.116 441.697 328.419 443.591C329.722 445.47 330.465 447.667 330.647 450.182H322.783C322.465 448.5 321.707 447.098 320.51 445.977C319.328 444.841 317.745 444.273 315.76 444.273C314.078 444.273 312.601 444.727 311.328 445.636C310.056 446.53 309.063 447.818 308.351 449.5C307.654 451.182 307.306 453.197 307.306 455.545C307.306 457.924 307.654 459.97 308.351 461.682C309.048 463.379 310.025 464.689 311.283 465.614C312.556 466.523 314.048 466.977 315.76 466.977C316.972 466.977 318.056 466.75 319.01 466.295C319.98 465.826 320.791 465.152 321.442 464.273C322.094 463.394 322.541 462.326 322.783 461.068H330.647C330.45 463.538 329.722 465.727 328.465 467.636C327.207 469.53 325.495 471.015 323.328 472.091C321.162 473.152 318.616 473.682 315.692 473.682ZM345.848 473.705C343.636 473.705 341.643 473.311 339.87 472.523C338.113 471.72 336.719 470.538 335.689 468.977C334.673 467.417 334.166 465.492 334.166 463.205C334.166 461.235 334.53 459.606 335.257 458.318C335.984 457.03 336.977 456 338.234 455.227C339.492 454.455 340.908 453.871 342.484 453.477C344.075 453.068 345.719 452.773 347.416 452.591C349.461 452.379 351.12 452.189 352.393 452.023C353.666 451.841 354.59 451.568 355.166 451.205C355.757 450.826 356.052 450.242 356.052 449.455V449.318C356.052 447.606 355.545 446.28 354.53 445.341C353.514 444.402 352.052 443.932 350.143 443.932C348.128 443.932 346.53 444.371 345.348 445.25C344.181 446.129 343.393 447.167 342.984 448.364L335.302 447.273C335.908 445.152 336.908 443.379 338.302 441.955C339.696 440.515 341.401 439.439 343.416 438.727C345.431 438 347.658 437.636 350.098 437.636C351.78 437.636 353.454 437.833 355.12 438.227C356.787 438.621 358.31 439.273 359.689 440.182C361.067 441.076 362.173 442.295 363.007 443.841C363.855 445.386 364.28 447.318 364.28 449.636V473H356.37V468.205H356.098C355.598 469.174 354.893 470.083 353.984 470.932C353.09 471.765 351.961 472.439 350.598 472.955C349.249 473.455 347.666 473.705 345.848 473.705ZM347.984 467.659C349.636 467.659 351.067 467.333 352.28 466.682C353.492 466.015 354.423 465.136 355.075 464.045C355.742 462.955 356.075 461.765 356.075 460.477V456.364C355.817 456.576 355.378 456.773 354.757 456.955C354.151 457.136 353.469 457.295 352.711 457.432C351.954 457.568 351.204 457.689 350.461 457.795C349.719 457.902 349.075 457.992 348.53 458.068C347.302 458.235 346.204 458.508 345.234 458.886C344.264 459.265 343.499 459.795 342.939 460.477C342.378 461.144 342.098 462.008 342.098 463.068C342.098 464.583 342.651 465.727 343.757 466.5C344.863 467.273 346.272 467.659 347.984 467.659ZM379.18 452.545V473H370.952V438.091H378.816V444.023H379.225C380.028 442.068 381.308 440.515 383.066 439.364C384.839 438.212 387.028 437.636 389.634 437.636C392.043 437.636 394.142 438.152 395.93 439.182C397.733 440.212 399.127 441.705 400.111 443.659C401.111 445.614 401.604 447.985 401.589 450.773V473H393.361V452.045C393.361 449.712 392.755 447.886 391.543 446.568C390.346 445.25 388.687 444.591 386.566 444.591C385.127 444.591 383.846 444.909 382.725 445.545C381.619 446.167 380.748 447.068 380.111 448.25C379.49 449.432 379.18 450.864 379.18 452.545ZM421.307 473.614C418.564 473.614 416.11 472.909 413.943 471.5C411.777 470.091 410.064 468.045 408.807 465.364C407.549 462.682 406.92 459.424 406.92 455.591C406.92 451.712 407.557 448.439 408.83 445.773C410.117 443.091 411.852 441.068 414.034 439.705C416.216 438.326 418.648 437.636 421.33 437.636C423.375 437.636 425.057 437.985 426.375 438.682C427.693 439.364 428.739 440.189 429.511 441.159C430.284 442.114 430.883 443.015 431.307 443.864H431.648V426.455H439.898V473H431.807V467.5H431.307C430.883 468.348 430.269 469.25 429.466 470.205C428.663 471.144 427.602 471.947 426.284 472.614C424.966 473.28 423.307 473.614 421.307 473.614ZM423.602 466.864C425.345 466.864 426.83 466.394 428.057 465.455C429.284 464.5 430.216 463.174 430.852 461.477C431.489 459.78 431.807 457.803 431.807 455.545C431.807 453.288 431.489 451.326 430.852 449.659C430.231 447.992 429.307 446.697 428.08 445.773C426.867 444.848 425.375 444.386 423.602 444.386C421.769 444.386 420.239 444.864 419.011 445.818C417.784 446.773 416.86 448.091 416.239 449.773C415.617 451.455 415.307 453.379 415.307 455.545C415.307 457.727 415.617 459.674 416.239 461.386C416.875 463.083 417.807 464.424 419.034 465.409C420.277 466.379 421.799 466.864 423.602 466.864ZM447.065 473V438.091H455.292V473H447.065ZM451.201 433.136C449.898 433.136 448.777 432.705 447.837 431.841C446.898 430.962 446.428 429.909 446.428 428.682C446.428 427.439 446.898 426.386 447.837 425.523C448.777 424.644 449.898 424.205 451.201 424.205C452.519 424.205 453.641 424.644 454.565 425.523C455.504 426.386 455.974 427.439 455.974 428.682C455.974 429.909 455.504 430.962 454.565 431.841C453.641 432.705 452.519 433.136 451.201 433.136ZM475.107 473.614C472.364 473.614 469.91 472.909 467.743 471.5C465.577 470.091 463.864 468.045 462.607 465.364C461.349 462.682 460.72 459.424 460.72 455.591C460.72 451.712 461.357 448.439 462.63 445.773C463.917 443.091 465.652 441.068 467.834 439.705C470.016 438.326 472.448 437.636 475.13 437.636C477.175 437.636 478.857 437.985 480.175 438.682C481.493 439.364 482.539 440.189 483.311 441.159C484.084 442.114 484.683 443.015 485.107 443.864H485.448V426.455H493.698V473H485.607V467.5H485.107C484.683 468.348 484.069 469.25 483.266 470.205C482.463 471.144 481.402 471.947 480.084 472.614C478.766 473.28 477.107 473.614 475.107 473.614ZM477.402 466.864C479.145 466.864 480.63 466.394 481.857 465.455C483.084 464.5 484.016 463.174 484.652 461.477C485.289 459.78 485.607 457.803 485.607 455.545C485.607 453.288 485.289 451.326 484.652 449.659C484.031 447.992 483.107 446.697 481.88 445.773C480.667 444.848 479.175 444.386 477.402 444.386C475.569 444.386 474.039 444.864 472.811 445.818C471.584 446.773 470.66 448.091 470.039 449.773C469.417 451.455 469.107 453.379 469.107 455.545C469.107 457.727 469.417 459.674 470.039 461.386C470.675 463.083 471.607 464.424 472.834 465.409C474.077 466.379 475.599 466.864 477.402 466.864ZM510.91 473.705C508.698 473.705 506.706 473.311 504.933 472.523C503.175 471.72 501.781 470.538 500.751 468.977C499.736 467.417 499.228 465.492 499.228 463.205C499.228 461.235 499.592 459.606 500.319 458.318C501.047 457.03 502.039 456 503.297 455.227C504.554 454.455 505.971 453.871 507.547 453.477C509.138 453.068 510.781 452.773 512.478 452.591C514.524 452.379 516.183 452.189 517.456 452.023C518.728 451.841 519.653 451.568 520.228 451.205C520.819 450.826 521.115 450.242 521.115 449.455V449.318C521.115 447.606 520.607 446.28 519.592 445.341C518.577 444.402 517.115 443.932 515.206 443.932C513.191 443.932 511.592 444.371 510.41 445.25C509.244 446.129 508.456 447.167 508.047 448.364L500.365 447.273C500.971 445.152 501.971 443.379 503.365 441.955C504.759 440.515 506.463 439.439 508.478 438.727C510.494 438 512.721 437.636 515.16 437.636C516.842 437.636 518.516 437.833 520.183 438.227C521.85 438.621 523.372 439.273 524.751 440.182C526.13 441.076 527.236 442.295 528.069 443.841C528.918 445.386 529.342 447.318 529.342 449.636V473H521.433V468.205H521.16C520.66 469.174 519.956 470.083 519.047 470.932C518.153 471.765 517.024 472.439 515.66 472.955C514.312 473.455 512.728 473.705 510.91 473.705ZM513.047 467.659C514.698 467.659 516.13 467.333 517.342 466.682C518.554 466.015 519.486 465.136 520.138 464.045C520.804 462.955 521.138 461.765 521.138 460.477V456.364C520.88 456.576 520.441 456.773 519.819 456.955C519.213 457.136 518.531 457.295 517.774 457.432C517.016 457.568 516.266 457.689 515.524 457.795C514.781 457.902 514.138 457.992 513.592 458.068C512.365 458.235 511.266 458.508 510.297 458.886C509.327 459.265 508.562 459.795 508.001 460.477C507.441 461.144 507.16 462.008 507.16 463.068C507.16 464.583 507.713 465.727 508.819 466.5C509.925 467.273 511.334 467.659 513.047 467.659ZM553.447 438.091V444.455H533.378V438.091H553.447ZM538.333 429.727H546.56V462.5C546.56 463.606 546.727 464.455 547.06 465.045C547.409 465.621 547.863 466.015 548.424 466.227C548.984 466.439 549.606 466.545 550.288 466.545C550.803 466.545 551.272 466.508 551.697 466.432C552.136 466.356 552.469 466.288 552.697 466.227L554.083 472.659C553.644 472.811 553.015 472.977 552.197 473.159C551.394 473.341 550.409 473.447 549.242 473.477C547.181 473.538 545.325 473.227 543.674 472.545C542.022 471.848 540.712 470.773 539.742 469.318C538.788 467.864 538.318 466.045 538.333 463.864V429.727ZM573.807 473.682C570.307 473.682 567.284 472.955 564.739 471.5C562.208 470.03 560.261 467.955 558.898 465.273C557.534 462.576 556.852 459.402 556.852 455.75C556.852 452.159 557.534 449.008 558.898 446.295C560.277 443.568 562.201 441.447 564.67 439.932C567.14 438.402 570.042 437.636 573.375 437.636C575.527 437.636 577.557 437.985 579.466 438.682C581.39 439.364 583.087 440.424 584.557 441.864C586.042 443.303 587.208 445.136 588.057 447.364C588.905 449.576 589.33 452.212 589.33 455.273V457.795H560.716V452.25H581.443C581.428 450.674 581.087 449.273 580.42 448.045C579.754 446.803 578.822 445.826 577.625 445.114C576.443 444.402 575.064 444.045 573.489 444.045C571.807 444.045 570.33 444.455 569.057 445.273C567.784 446.076 566.792 447.136 566.08 448.455C565.383 449.758 565.027 451.189 565.011 452.75V457.591C565.011 459.621 565.383 461.364 566.125 462.818C566.867 464.258 567.905 465.364 569.239 466.136C570.572 466.894 572.133 467.273 573.92 467.273C575.117 467.273 576.201 467.106 577.17 466.773C578.14 466.424 578.981 465.917 579.693 465.25C580.405 464.583 580.943 463.758 581.307 462.773L588.989 463.636C588.504 465.667 587.58 467.439 586.216 468.955C584.867 470.455 583.14 471.621 581.034 472.455C578.928 473.273 576.519 473.682 573.807 473.682ZM624.419 473.682C620.919 473.682 617.897 472.955 615.351 471.5C612.821 470.03 610.874 467.955 609.51 465.273C608.147 462.576 607.465 459.402 607.465 455.75C607.465 452.159 608.147 449.008 609.51 446.295C610.889 443.568 612.813 441.447 615.283 439.932C617.753 438.402 620.654 437.636 623.987 437.636C626.139 437.636 628.169 437.985 630.078 438.682C632.003 439.364 633.7 440.424 635.169 441.864C636.654 443.303 637.821 445.136 638.669 447.364C639.518 449.576 639.942 452.212 639.942 455.273V457.795H611.328V452.25H632.056C632.041 450.674 631.7 449.273 631.033 448.045C630.366 446.803 629.434 445.826 628.237 445.114C627.056 444.402 625.677 444.045 624.101 444.045C622.419 444.045 620.942 444.455 619.669 445.273C618.397 446.076 617.404 447.136 616.692 448.455C615.995 449.758 615.639 451.189 615.624 452.75V457.591C615.624 459.621 615.995 461.364 616.737 462.818C617.48 464.258 618.518 465.364 619.851 466.136C621.184 466.894 622.745 467.273 624.533 467.273C625.73 467.273 626.813 467.106 627.783 466.773C628.753 466.424 629.594 465.917 630.306 465.25C631.018 464.583 631.556 463.758 631.919 462.773L639.601 463.636C639.116 465.667 638.192 467.439 636.828 468.955C635.48 470.455 633.753 471.621 631.647 472.455C629.541 473.273 627.131 473.682 624.419 473.682ZM651.28 438.091L658.325 450.977L665.484 438.091H674.189L663.666 455.545L674.37 473H665.711L658.325 460.432L651.007 473H642.28L652.916 455.545L642.552 438.091H651.28ZM678.952 486.091V438.091H687.043V443.864H687.52C687.945 443.015 688.543 442.114 689.316 441.159C690.089 440.189 691.134 439.364 692.452 438.682C693.77 437.985 695.452 437.636 697.498 437.636C700.195 437.636 702.626 438.326 704.793 439.705C706.975 441.068 708.702 443.091 709.975 445.773C711.263 448.439 711.907 451.712 711.907 455.591C711.907 459.424 711.278 462.682 710.02 465.364C708.763 468.045 707.051 470.091 704.884 471.5C702.717 472.909 700.263 473.614 697.52 473.614C695.52 473.614 693.861 473.28 692.543 472.614C691.225 471.947 690.164 471.144 689.361 470.205C688.573 469.25 687.96 468.348 687.52 467.5H687.18V486.091H678.952ZM687.02 455.545C687.02 457.803 687.339 459.78 687.975 461.477C688.626 463.174 689.558 464.5 690.77 465.455C691.998 466.394 693.483 466.864 695.225 466.864C697.043 466.864 698.566 466.379 699.793 465.409C701.02 464.424 701.945 463.083 702.566 461.386C703.202 459.674 703.52 457.727 703.52 455.545C703.52 453.379 703.21 451.455 702.589 449.773C701.967 448.091 701.043 446.773 699.816 445.818C698.589 444.864 697.058 444.386 695.225 444.386C693.467 444.386 691.975 444.848 690.748 445.773C689.52 446.697 688.589 447.992 687.952 449.659C687.331 451.326 687.02 453.288 687.02 455.545ZM732.807 473.682C729.307 473.682 726.284 472.955 723.739 471.5C721.208 470.03 719.261 467.955 717.898 465.273C716.534 462.576 715.852 459.402 715.852 455.75C715.852 452.159 716.534 449.008 717.898 446.295C719.277 443.568 721.201 441.447 723.67 439.932C726.14 438.402 729.042 437.636 732.375 437.636C734.527 437.636 736.557 437.985 738.466 438.682C740.39 439.364 742.087 440.424 743.557 441.864C745.042 443.303 746.208 445.136 747.057 447.364C747.905 449.576 748.33 452.212 748.33 455.273V457.795H719.716V452.25H740.443C740.428 450.674 740.087 449.273 739.42 448.045C738.754 446.803 737.822 445.826 736.625 445.114C735.443 444.402 734.064 444.045 732.489 444.045C730.807 444.045 729.33 444.455 728.057 445.273C726.784 446.076 725.792 447.136 725.08 448.455C724.383 449.758 724.027 451.189 724.011 452.75V457.591C724.011 459.621 724.383 461.364 725.125 462.818C725.867 464.258 726.905 465.364 728.239 466.136C729.572 466.894 731.133 467.273 732.92 467.273C734.117 467.273 735.201 467.106 736.17 466.773C737.14 466.424 737.981 465.917 738.693 465.25C739.405 464.583 739.943 463.758 740.307 462.773L747.989 463.636C747.504 465.667 746.58 467.439 745.216 468.955C743.867 470.455 742.14 471.621 740.034 472.455C737.928 473.273 735.519 473.682 732.807 473.682ZM753.69 473V438.091H761.667V443.909H762.031C762.667 441.894 763.758 440.341 765.303 439.25C766.864 438.144 768.644 437.591 770.644 437.591C771.099 437.591 771.606 437.614 772.167 437.659C772.743 437.689 773.22 437.742 773.599 437.818V445.386C773.25 445.265 772.697 445.159 771.94 445.068C771.197 444.962 770.478 444.909 769.781 444.909C768.281 444.909 766.932 445.235 765.735 445.886C764.553 446.523 763.622 447.409 762.94 448.545C762.258 449.682 761.917 450.992 761.917 452.477V473H753.69ZM777.465 473V438.091H785.692V473H777.465ZM781.601 433.136C780.298 433.136 779.177 432.705 778.237 431.841C777.298 430.962 776.828 429.909 776.828 428.682C776.828 427.439 777.298 426.386 778.237 425.523C779.177 424.644 780.298 424.205 781.601 424.205C782.919 424.205 784.041 424.644 784.965 425.523C785.904 426.386 786.374 427.439 786.374 428.682C786.374 429.909 785.904 430.962 784.965 431.841C784.041 432.705 782.919 433.136 781.601 433.136ZM808.007 473.682C804.507 473.682 801.484 472.955 798.939 471.5C796.408 470.03 794.461 467.955 793.098 465.273C791.734 462.576 791.052 459.402 791.052 455.75C791.052 452.159 791.734 449.008 793.098 446.295C794.477 443.568 796.401 441.447 798.87 439.932C801.34 438.402 804.242 437.636 807.575 437.636C809.727 437.636 811.757 437.985 813.666 438.682C815.59 439.364 817.287 440.424 818.757 441.864C820.242 443.303 821.408 445.136 822.257 447.364C823.105 449.576 823.53 452.212 823.53 455.273V457.795H794.916V452.25H815.643C815.628 450.674 815.287 449.273 814.62 448.045C813.954 446.803 813.022 445.826 811.825 445.114C810.643 444.402 809.264 444.045 807.689 444.045C806.007 444.045 804.53 444.455 803.257 445.273C801.984 446.076 800.992 447.136 800.28 448.455C799.583 449.758 799.227 451.189 799.211 452.75V457.591C799.211 459.621 799.583 461.364 800.325 462.818C801.067 464.258 802.105 465.364 803.439 466.136C804.772 466.894 806.333 467.273 808.12 467.273C809.317 467.273 810.401 467.106 811.37 466.773C812.34 466.424 813.181 465.917 813.893 465.25C814.605 464.583 815.143 463.758 815.507 462.773L823.189 463.636C822.704 465.667 821.78 467.439 820.416 468.955C819.067 470.455 817.34 471.621 815.234 472.455C813.128 473.273 810.719 473.682 808.007 473.682ZM837.117 452.545V473H828.89V438.091H836.753V444.023H837.162C837.966 442.068 839.246 440.515 841.003 439.364C842.776 438.212 844.966 437.636 847.572 437.636C849.981 437.636 852.079 438.152 853.867 439.182C855.67 440.212 857.064 441.705 858.049 443.659C859.049 445.614 859.541 447.985 859.526 450.773V473H851.299V452.045C851.299 449.712 850.693 447.886 849.481 446.568C848.284 445.25 846.625 444.591 844.503 444.591C843.064 444.591 841.784 444.909 840.662 445.545C839.556 446.167 838.685 447.068 838.049 448.25C837.428 449.432 837.117 450.864 837.117 452.545ZM881.517 473.682C878.032 473.682 875.04 472.917 872.54 471.386C870.055 469.856 868.138 467.742 866.79 465.045C865.456 462.333 864.79 459.212 864.79 455.682C864.79 452.136 865.472 449.008 866.835 446.295C868.199 443.568 870.123 441.447 872.608 439.932C875.108 438.402 878.063 437.636 881.472 437.636C884.305 437.636 886.813 438.159 888.994 439.205C891.191 440.235 892.941 441.697 894.244 443.591C895.547 445.47 896.29 447.667 896.472 450.182H888.608C888.29 448.5 887.532 447.098 886.335 445.977C885.153 444.841 883.57 444.273 881.585 444.273C879.903 444.273 878.426 444.727 877.153 445.636C875.881 446.53 874.888 447.818 874.176 449.5C873.479 451.182 873.131 453.197 873.131 455.545C873.131 457.924 873.479 459.97 874.176 461.682C874.873 463.379 875.85 464.689 877.108 465.614C878.381 466.523 879.873 466.977 881.585 466.977C882.797 466.977 883.881 466.75 884.835 466.295C885.805 465.826 886.616 465.152 887.267 464.273C887.919 463.394 888.366 462.326 888.608 461.068H896.472C896.275 463.538 895.547 465.727 894.29 467.636C893.032 469.53 891.32 471.015 889.153 472.091C886.987 473.152 884.441 473.682 881.517 473.682ZM917.082 473.682C913.582 473.682 910.559 472.955 908.014 471.5C905.483 470.03 903.536 467.955 902.173 465.273C900.809 462.576 900.127 459.402 900.127 455.75C900.127 452.159 900.809 449.008 902.173 446.295C903.552 443.568 905.476 441.447 907.945 439.932C910.415 438.402 913.317 437.636 916.65 437.636C918.802 437.636 920.832 437.985 922.741 438.682C924.665 439.364 926.362 440.424 927.832 441.864C929.317 443.303 930.483 445.136 931.332 447.364C932.18 449.576 932.605 452.212 932.605 455.273V457.795H903.991V452.25H924.718C924.703 450.674 924.362 449.273 923.695 448.045C923.029 446.803 922.097 445.826 920.9 445.114C919.718 444.402 918.339 444.045 916.764 444.045C915.082 444.045 913.605 444.455 912.332 445.273C911.059 446.076 910.067 447.136 909.355 448.455C908.658 449.758 908.302 451.189 908.286 452.75V457.591C908.286 459.621 908.658 461.364 909.4 462.818C910.142 464.258 911.18 465.364 912.514 466.136C913.847 466.894 915.408 467.273 917.195 467.273C918.392 467.273 919.476 467.106 920.445 466.773C921.415 466.424 922.256 465.917 922.968 465.25C923.68 464.583 924.218 463.758 924.582 462.773L932.264 463.636C931.779 465.667 930.855 467.439 929.491 468.955C928.142 470.455 926.415 471.621 924.309 472.455C922.203 473.273 919.794 473.682 917.082 473.682ZM943.033 473.5C941.654 473.5 940.472 473.015 939.487 472.045C938.503 471.076 938.018 469.894 938.033 468.5C938.018 467.136 938.503 465.97 939.487 465C940.472 464.03 941.654 463.545 943.033 463.545C944.366 463.545 945.525 464.03 946.51 465C947.51 465.97 948.018 467.136 948.033 468.5C948.018 469.424 947.775 470.265 947.306 471.023C946.851 471.78 946.245 472.386 945.487 472.841C944.745 473.28 943.927 473.5 943.033 473.5Z" fill="#F2F4F5"/>
</g>
<defs>
<clipPath id="clip0_1_8">
<rect width="1280" height="640" fill="white"/>
</clipPath>
</defs>
</svg>
